<svg width="1080" height="360" viewBox="0 0 15000 5000" xmlns="http://www.w3.org/2000/svg" stroke-linecap="round" stroke-linejoin="round"><defs><linearGradient id="key-f0f0f0" x1="100%" y1="0%" x2="0%" y2="0%"><stop offset="0%" stop-color="#f1f1f1" /><stop offset="50%" stop-color="#f0f0f0" /><stop offset="100%" stop-color="#e4e4e4" /></linearGradient><linearGradient id="scoop-f0f0f0" x1="100%" y1="0%" x2="0%" y2="0%"><stop offset="0%" stop-color="#f3f3f3" /><stop offset="50%" stop-color="#f0f0f0" /><stop offset="100%" stop-color="#cccccc" /></linearGradient><linearGradient id="space-f0f0f0" x1="0%" y1="0%" x2="0%" y2="100%"><stop offset="0%" stop-color="#f1f1f1" /><stop offset="50%" stop-color="#f0f0f0" /><stop offset="100%" stop-color="#e4e4e4" /></linearGradient></defs><g transform="translate(0,0)"><rect fill="#f0f0f0" stroke="#cacaca" stroke-width="10" x="19.948" y="19.948" width="960.105" height="960.105" rx="19.948" ry="19.948" /><path fill="url(#key-f0f0f0)" stroke="#cacaca" stroke-width="10" d="M190.026 129.659c0-44.067 35.723-79.79 79.79-79.79h460.367c44.067 0 79.79 35.723 79.79 79.79v570.604c0 44.067-35.723 79.79-79.79 79.79c-153.166 13.333-307.201 13.333-460.367 0c-44.067 0-79.79-35.723-79.79-79.79z" /><path d="M411.28 309.202c-46.906-0-58.862-53.344-97.49-53.344c-47.366-0-43.687 52.884-63.921 46.906c-30.811-9.197 14.256-74.957 58.862-74.957c45.066-0 58.402 56.103 100.709 56.103c53.804-0 28.051-52.884 54.723-52.884c31.27-0-4.139 78.176-52.884 78.176z" fill="#000000" stroke="none" /><path d="M311.03 589.386c3.679 6.898 1.38 15.175-5.058 18.854c-6.898 4.139-14.716 1.839-18.854-5.058c0-0 0-0.46-0.46-0.46l-36.789-63.921c-4.139-6.898-1.38-14.716 5.058-18.854c6.438-4.139 15.175-1.839 18.854 5.058l1.38 2.759l34.489 59.322z" fill="#000000" stroke="none" /></g><g transform="translate(1000,0)"><rect fill="#f0f0f0" stroke="#cacaca" stroke-width="10" x="19.948" y="19.948" width="960.105" height="960.105" rx="19.948" ry="19.948" /><path fill="url(#key-f0f0f0)" stroke="#cacaca" stroke-width="10" d="M190.026 129.659c0-44.067 35.723-79.79 79.79-79.79h460.367c44.067 0 79.79 35.723 79.79 79.79v570.604c0 44.067-35.723 79.79-79.79 79.79c-153.166 13.333-307.201 13.333-460.367 0c-44.067 0-79.79-35.723-79.79-79.79z" /><path d="M251.766 281.486l-1.898-78.615c-0.271-9.759 8.133-17.892 18.434-17.892c9.759-0 18.163 8.133 17.892 17.892l-1.898 78.615c-0.271 11.928-7.319 21.416-15.994 21.416c-9.217-0-16.265-9.488-16.536-21.416zM268.303 351.969c-10.301-0-18.434-8.133-18.434-18.434c0-9.759 8.133-17.892 18.434-17.892c9.759-0 17.892 8.133 17.892 17.892c0 10.301-8.133 18.434-17.892 18.434z" fill="#000000" stroke="none" /><path d="M281.483 669.907v-85.545c0-4.649 0-9.066-5.347-9.066c-5.114-0-10.926 0.232-15.807-0.697c-4.417-0.93-10.461-5.579-10.461-12.088c0-5.579 5.114-9.763 11.158-13.018c7.439-3.952 14.18-7.671 20.456-13.25c7.439-6.509 10.228-16.272 19.527-16.272c9.298-0 14.18 5.811 14.18 15.11v134.826c0 9.298-7.671 16.97-16.97 16.97c-9.298-0-16.737-7.671-16.737-16.97z" fill="#000000" stroke="none" /></g><g transform="translate(2000,0)"><rect fill="#f0f0f0" stroke="#cacaca" stroke-width="10" x="19.948" y="19.948" width="960.105" height="960.105" rx="19.948" ry="19.948" /><path fill="url(#key-f0f0f0)" stroke="#cacaca" stroke-width="10" d="M190.026 129.659c0-44.067 35.723-79.79 79.79-79.79h460.367c44.067 0 79.79 35.723 79.79 79.79v570.604c0 44.067-35.723 79.79-79.79 79.79c-153.166 13.333-307.201 13.333-460.367 0c-44.067 0-79.79-35.723-79.79-79.79z" /><path d="M249.869 283.219c0-51.274 40.238-97.49 86.454-97.49c45.756-0 82.545 30.581 82.545 82.085c0 28.741-25.292 59.322-42.077 59.322c-14.256-0-18.624-3.449-24.143-5.978c-3.219-1.38-6.438-1.38-9.657-0.46c-10.117 3.219-17.475 8.048-31.96 5.288c-20.694-3.909-26.672-32.19-16.325-60.012c8.967-23.913 24.603-39.778 42.997-37.019c8.967 1.38 11.956 4.369 17.015 7.358c2.069 1.38 4.139 2.299 6.438 2.069c4.139-0.23 8.048-2.069 11.496 1.38c6.668 6.898-7.128 28.051-12.876 43.457c-5.748 15.635 5.748 22.763 12.876 22.763c12.876-0 25.752-26.212 24.143-44.376c-2.759-30.121-27.132-51.274-60.702-51.274c-28.281-0-60.242 36.559-60.242 74.497c0 42.307 18.394 63.691 51.964 63.691c11.037-0 19.544-5.748 25.522 0.69c6.438 7.128 4.369 17.705-5.058 20.464c-7.818 2.299-15.635 3.449-23.223 3.449c-45.296-0-75.187-32.42-75.187-89.903zM318.618 308.972c10.807 3.219 19.544-7.358 24.603-22.073c4.599-13.566 13.796-28.741-5.518-35.639c-13.796-4.829-22.763 9.887-28.051 22.993c-5.748 14.486-6.208 30.121 8.967 34.719z" fill="#000000" stroke="none" /><path d="M364.967 669.825c0 9.473-7.815 17.052-17.288 17.052h-79.811c-9.473-0-17.999-5.21-17.999-14.446c0-20.604 19.657-36.708 32.919-48.787c10.42-9.473 38.603-25.814 44.05-45.708c5.21-19.183-7.578-30.077-16.104-30.788c-35.998-3.079-20.604 30.788-43.339 30.788c-9.947-0-14.92-7.342-14.446-18.236c0.947-20.841 21.078-39.787 60.865-39.787c37.182-0 51.155 33.63 49.497 54.944c-1.658 21.788-20.367 40.971-41.682 52.102c-11.841 6.158-29.84 21.551-29.84 27.235c0 6.631 30.788 2.368 55.891 2.368c9.473-0 17.288 3.789 17.288 13.262z" fill="#000000" stroke="none" /></g><g transform="translate(3000,0)"><rect fill="#f0f0f0" stroke="#cacaca" stroke-width="10" x="19.948" y="19.948" width="960.105" height="960.105" rx="19.948" ry="19.948" /><path fill="url(#key-f0f0f0)" stroke="#cacaca" stroke-width="10" d="M190.026 129.659c0-44.067 35.723-79.79 79.79-79.79h460.367c44.067 0 79.79 35.723 79.79 79.79v570.604c0 44.067-35.723 79.79-79.79 79.79c-153.166 13.333-307.201 13.333-460.367 0c-44.067 0-79.79-35.723-79.79-79.79z" /><path d="M249.869 299.16c-0.126-7.242 5.972-13.557 13.559-13.69l24.829-0.433c1.035-0.018 2.408-0.387 2.729-1.772l8.883-24.646c0.986-2.777-0.774-4.816-3.188-4.774l-30.709-0.499c-7.593-0.212-13.563-6.317-13.696-13.904c-0.126-7.242 6.323-13.218 13.91-13.351l0.345-0.006l43.117-0.063c1.035-0.018 2.408-0.387 2.729-1.772l7.897-21.87c2.3-6.594 10.171-10.181 18.816-8.952c8.3 1.235 12.892 7.364 10.598 14.303l-4.938 13.539c-0.986 2.777 1.119 4.81 3.533 4.768l30.013 0.166c1.035-0.018 2.402-0.732 2.723-2.117l8.224-22.91c2.3-6.594 10.171-10.181 18.816-8.952c8.3 1.235 13.236 7.358 10.598 14.303l-5.265 14.58c-0.986 2.777 1.119 4.81 3.533 4.768l14.145 0.098l0.69-0.012c7.937 0.206 14.955 6.983 14.748 14.92c-0.2 8.282-6.983 14.955-14.914 15.093l-1.035 0.018l-27.261-0.559c-1.035 0.018-2.402 0.732-2.723 2.117l-7.57 20.829c-0.986 2.777 0.429 4.822 3.188 4.774l32.76-0.572c7.931-0.138 14.949 6.638 15.087 14.569c0.144 8.276-6.632 15.293-14.563 15.432l-0.345 0.006l-46.566 0.123c-1.035 0.018-2.408 0.387-2.729 1.772l-6.905 19.438c-2.3 6.594-11.526 11.584-19.493 9.654c-8.312-1.925-12.91-8.398-10.271-15.343l3.952-10.762c0.986-2.777-1.119-4.81-3.533-4.768l-29.668-0.172c-1.035 0.018-2.402 0.732-2.723 2.117l-7.231 20.478c-2.3 6.594-11.526 11.584-19.493 9.654c-8.312-1.925-12.565-8.404-10.271-15.343l4.278-11.803c0.986-2.777-1.119-4.81-3.533-4.768l-11.041-0.152c-7.587 0.132-13.902-5.966-14.034-13.553zM323.691 279.59c-0.986 2.777 0.774 4.816 3.533 4.768l30.001-0.524c1.035-0.018 2.408-0.387 2.729-1.772l8.23-22.565c0.992-2.432-0.774-4.816-3.188-4.774l-30.019-0.511c-1.035 0.018-2.402 0.732-2.723 2.117z" fill="#000000" stroke="none" /><path d="M262.264 572.505c-10.712-4.332-10.184-16.476-6.011-25.782c6.253-14.075 23.817-25.714 44.266-26.786c22.075-1.157 55.655 12.695 56.958 37.558c1.79 34.158-27.5 31.033-27.147 37.772c0.463 8.83 29.229 1.963 31.25 40.537c1.559 29.743-29.534 50.014-54.177 51.072c-21.39 0.888-48.795-10.724-57.535-30.771c-4.51-10.482-0.839-20.461 6.071-21.988c9.442-2.126 15.299 2.926 18.453 9.751c4.205 9.1 17.363 15.634 26.425 15.159c12.083-0.633 22.651-7.944 24.941-17.618c3.831-15.812-9.081-26.553-20.05-31.337c-5.955-2.484-8.559-7.707-8.851-13.284c-0.353-6.739 2.632-12.021 6.998-13.182c9.65-2.603 20.059-8.508 19.462-19.894c-0.67-12.78-13.18-15.853-22.01-15.39c-10.224 0.536-17.943 8.863-21.773 15.821c-3.181 5.992-7.512 12.277-17.27 8.361z" fill="#000000" stroke="none" /></g><g transform="translate(4000,0)"><rect fill="#f0f0f0" stroke="#cacaca" stroke-width="10" x="19.948" y="19.948" width="960.105" height="960.105" rx="19.948" ry="19.948" /><path fill="url(#key-f0f0f0)" stroke="#cacaca" stroke-width="10" d="M190.026 129.659c0-44.067 35.723-79.79 79.79-79.79h460.367c44.067 0 79.79 35.723 79.79 79.79v570.604c0 44.067-35.723 79.79-79.79 79.79c-153.166 13.333-307.201 13.333-460.367 0c-44.067 0-79.79-35.723-79.79-79.79z" /><path d="M249.869 320.684c-3.763-7.997-5.175-19.523 7.057-23.287c8.703-2.587 16.936 1.176 20.464 11.055c2.587 6.821 8.468 14.819 20.934 17.406c3.058 0.47 5.41-1.647 5.41-4.704v-37.164c0-1.882-1.176-3.528-3.058-4.234c-23.051-6.116-50.102-16.936-50.102-52.218c0-24.933 26.58-40.693 48.925-43.045c2.587-0.235 4.234-2.117 4.234-4.469v-1.647c0-3.999 3.528-7.527 7.762-7.527c3.999-0 7.527 3.528 7.527 7.527v2.823c0 2.117 1.647 3.999 3.763 4.234c14.584 2.117 24.933 7.762 35.518 18.347c12.702 12.702 8.703 27.05 2.823 31.519c-6.821 5.175-18.112 6.351-23.992-5.41c-2.117-4.234-5.41-9.174-10.82-12.702c-3.528-2.117-7.292 0.706-7.292 4.704v29.402c0 1.882 1.176 3.528 3.293 3.999c5.88 1.647 11.526 2.823 15.76 3.763c18.582 4.704 33.401 21.405 33.401 43.045c0 21.64-15.76 47.749-50.807 50.102c-1.411-0-2.352 0.706-3.058 1.647c-1.411 1.882-3.763 3.293-6.116 3.293c-2.587-0-4.94-1.411-6.351-3.293c-0.706-1.411-1.882-2.117-3.763-2.352c-24.933-2.587-42.575-12.467-51.513-30.814zM281.153 231.537c0 6.586 6.586 11.526 15.289 15.524c3.763 1.882 7.292-0.706 7.292-4.704v-23.992c0-3.058-3.763-5.41-8.468-3.763c-9.409 3.058-14.113 9.644-14.113 16.936zM319.023 319.508c0 3.293 2.823 5.645 6.116 4.704c8.938-2.823 14.819-8.468 14.819-16.701c0-7.527-5.41-13.878-13.407-18.582c-3.528-2.117-7.527 0.47-7.527 4.704v25.874z" fill="#000000" stroke="none" /><path d="M249.869 625.066c0-8.418 4.329-14.43 9.861-20.924c19-22.367 30.785-38.241 50.506-63.013c13.949-17.557 19-21.165 28.861-21.165c11.785-0 21.165 7.215 21.165 19v74.798c0 3.367 2.646 6.253 6.013 6.253h3.127c8.177-0 14.671 6.734 14.671 14.911c0 8.177-6.494 14.671-14.671 14.671h-2.886c-3.367-0-6.253 2.646-6.253 6.013v13.709c0 9.62-7.937 17.557-17.557 17.557c-9.62-0-17.316-7.937-17.316-17.557v-13.468c0-3.367-2.646-6.253-6.013-6.253h-45.937c-12.987-0-23.57-11.544-23.57-24.532zM286.907 613.041c-2.405 3.127-0.241 6.975 3.608 6.975h31.987c3.848-0 6.734-2.886 6.734-6.734v-41.367c0-5.291-6.013-7.456-9.38-3.127z" fill="#000000" stroke="none" /></g><g transform="translate(5000,0)"><rect fill="#f0f0f0" stroke="#cacaca" stroke-width="10" x="19.948" y="19.948" width="960.105" height="960.105" rx="19.948" ry="19.948" /><path fill="url(#key-f0f0f0)" stroke="#cacaca" stroke-width="10" d="M190.026 129.659c0-44.067 35.723-79.79 79.79-79.79h460.367c44.067 0 79.79 35.723 79.79 79.79v570.604c0 44.067-35.723 79.79-79.79 79.79c-153.166 13.333-307.201 13.333-460.367 0c-44.067 0-79.79-35.723-79.79-79.79z" /><path d="M282.059 317.939l77.256-123.013c3.909-6.208 11.726-8.277 17.935-4.369c6.668 4.139 8.507 11.956 4.599 18.394l-76.797 123.242c-4.139 6.668-12.416 8.277-18.394 4.599c-6.668-4.139-8.737-12.416-4.599-18.854zM284.818 261.376c-19.314-0-34.949-15.635-34.949-34.949c0-19.314 15.635-34.949 34.949-34.949c19.314-0 34.949 15.635 34.949 34.949c0 19.314-15.635 34.949-34.949 34.949zM285.048 239.303c7.128-0 12.876-5.748 12.876-12.876c0-7.358-5.748-13.106-12.876-13.106c-7.358-0-13.106 5.748-13.106 13.106c0 7.128 5.748 12.876 13.106 12.876zM373.111 346.45c-19.314-0-34.949-15.635-34.949-34.949c0-19.314 15.635-34.949 34.949-34.949c19.314-0 34.949 15.635 34.949 34.949c0 19.314-15.635 34.949-34.949 34.949zM373.341 324.377c7.128-0 12.876-5.748 12.876-12.876c0-7.358-5.748-13.106-12.876-13.106c-7.358-0-13.106 5.748-13.106 13.106c0 7.128 5.748 12.876 13.106 12.876z" fill="#000000" stroke="none" /><path d="M299.271 549.222c-2.158-0-4.557 1.679-5.516 3.597c-3.837 6.955-4.796 11.751-5.276 18.946c-0.24 3.837 1.679 5.516 5.276 5.036c8.394-1.199 16.308-3.837 24.941-3.837c32.615-0 54.678 29.977 54.678 55.877c0 19.425-14.629 58.036-64.511 58.036c-34.294-0-56.117-15.828-58.995-40.049c-1.199-10.312 4.557-21.104 13.67-21.104c6.235-0 15.828 4.317 17.746 14.629c2.158 11.991 15.348 17.507 25.9 17.507c18.226-0 31.896-14.389 31.896-29.977c0-13.43-10.312-27.099-26.14-27.099c-10.072-0-21.584 2.398-28.778 7.914c-5.516 4.317-15.588 3.837-22.543-1.199c-7.434-5.276-5.756-15.588-4.557-21.584c4.077-21.344 5.756-33.814 10.552-55.638c1.439-6.475 6.955-10.552 13.67-10.312c19.185 0.719 38.611-0.24 58.755 0.24c7.914-0 15.348 5.036 15.348 15.348c0 11.751-9.593 13.67-15.348 13.67c-14.629 0.719-26.62-0-40.769-0z" fill="#000000" stroke="none" /></g><g transform="translate(6000,0)"><rect fill="#f0f0f0" stroke="#cacaca" stroke-width="10" x="19.948" y="19.948" width="960.105" height="960.105" rx="19.948" ry="19.948" /><path fill="url(#key-f0f0f0)" stroke="#cacaca" stroke-width="10" d="M190.026 129.659c0-44.067 35.723-79.79 79.79-79.79h460.367c44.067 0 79.79 35.723 79.79 79.79v570.604c0 44.067-35.723 79.79-79.79 79.79c-153.166 13.333-307.201 13.333-460.367 0c-44.067 0-79.79-35.723-79.79-79.79z" /><path d="M249.869 281.702l76.153-90.868l2.207-2.207l1.839-1.104c2.575-1.839 5.518-2.575 8.461-2.575c2.943-0 5.886 0.736 8.461 2.575l1.839 1.104l2.575 2.575l75.785 90.5c5.518 6.99 4.783 16.923-1.839 22.441c-6.99 5.518-16.187 4.783-22.441-1.839l-58.126-69.531c-3.311-4.047-9.197-4.047-12.508-0l-58.126 69.531c-6.254 6.622-15.451 7.358-22.441 1.839c-6.622-5.518-7.358-15.451-1.839-22.441z" fill="#000000" stroke="none" /><path d="M318.687 574.694c-10.606-0-32.288 8.013-33.938 1.414c-1.414-5.892 10.841-29.46 28.281-29.46c16.969-0 18.619 9.663 25.218 16.733c5.892 6.363 13.434 5.656 19.09 3.064c6.599-3.064 7.542-11.784 5.421-17.676c-6.128-16.969-23.803-28.753-52.321-28.753c-34.645-0-58.684 37.473-60.569 80.131c-2.828 63.162 21.211 85.316 61.512 86.73c33.938 1.178 59.155-26.632 59.155-53.028c0-26.867-15.555-59.155-51.849-59.155zM312.559 599.44c17.44-0 25.689 16.969 25.689 29.931c0 12.727-6.363 30.874-25.689 30.874c-14.141-0-29.224-12.491-29.224-31.11c0-16.497 15.083-29.695 29.224-29.695z" fill="#000000" stroke="none" /></g><g transform="translate(7000,0)"><rect fill="#f0f0f0" stroke="#cacaca" stroke-width="10" x="19.948" y="19.948" width="960.105" height="960.105" rx="19.948" ry="19.948" /><path fill="url(#key-f0f0f0)" stroke="#cacaca" stroke-width="10" d="M190.026 129.659c0-44.067 35.723-79.79 79.79-79.79h460.367c44.067 0 79.79 35.723 79.79 79.79v570.604c0 44.067-35.723 79.79-79.79 79.79c-153.166 13.333-307.201 13.333-460.367 0c-44.067 0-79.79-35.723-79.79-79.79z" /><path d="M249.869 304.453c0-18.866 11.18-34.705 27.484-42.158c9.783-4.658 10.248-7.22 3.494-15.838c-4.891-6.522-7.686-14.441-7.686-23.292c0-21.196 17.236-38.199 38.665-38.199c21.196-0 38.199 17.003 38.199 38.199c0 13.509-8.152 26.087-19.099 33.307c-4.658 3.261-5.823 8.152-2.096 12.112l14.441 15.373c1.165 1.398 3.494 1.398 4.425-0.466l7.453-13.975c2.795-5.357 8.618-7.686 14.208-5.357c5.357 2.329 7.686 8.152 5.823 13.975l-8.618 26.553c-1.165 3.261-0.466 6.988 1.863 9.55l6.755 8.152c3.494 2.795 5.59 7.22 5.59 11.879c0 8.851-6.988 15.838-15.373 15.838c-6.056-0-11.18-3.261-13.975-8.152l-3.727-4.891c-3.96-5.59-10.248-4.891-14.907-0c-8.618 9.084-20.963 14.907-34.472 14.907c-26.786-0-48.447-21.196-48.447-47.515zM312.757 241.565c7.453-0 15.838-12.578 15.838-20.031c0-7.453-6.289-13.742-13.742-13.742c-7.453-0-13.742 6.289-13.742 13.742c0 7.453 4.193 20.031 11.646 20.031zM298.782 324.484c9.317-0 32.609-9.783 26.553-17.236c-6.056-7.453-14.907-20.73-20.963-26.553c-6.988-6.755-22.826 17.236-22.826 26.553c0 9.55 7.686 17.236 17.236 17.236z" fill="#000000" stroke="none" /><path d="M249.869 537.056c0-9.482 7.823-17.068 17.305-17.068h91.978c9.482-0 17.305 7.823 17.305 17.068c0 15.172-10.193 19.676-22.52 32.951c-8.771 9.482-24.417 36.033-27.736 45.515c-9.008 24.891-12.564 43.856-13.512 52.39c-1.185 10.668-8.534 18.965-18.965 18.965c-10.431-0-20.624-8.534-18.728-18.965c2.371-13.275 9.008-38.877 14.698-50.256c3.319-8.771 12.564-25.128 21.809-38.166c8.534-11.379 16.357-17.068 16.357-22.758c0-6.638-16.357-2.371-60.687-2.371c-9.482-0-17.305-7.823-17.305-17.305z" fill="#000000" stroke="none" /></g><g transform="translate(8000,0)"><rect fill="#f0f0f0" stroke="#cacaca" stroke-width="10" x="19.948" y="19.948" width="960.105" height="960.105" rx="19.948" ry="19.948" /><path fill="url(#key-f0f0f0)" stroke="#cacaca" stroke-width="10" d="M190.026 129.659c0-44.067 35.723-79.79 79.79-79.79h460.367c44.067 0 79.79 35.723 79.79 79.79v570.604c0 44.067-35.723 79.79-79.79 79.79c-153.166 13.333-307.201 13.333-460.367 0c-44.067 0-79.79-35.723-79.79-79.79z" /><path d="M249.869 268.504c0-8.967 7.243-16.555 16.555-16.555c5.173-0 17.245 3.449 25.522 5.173c2.759 0.345 3.794-2.414 1.724-4.139c-5.863-5.173-15.52-12.761-18.279-16.9c-5.518-7.933-3.449-17.935 4.139-23.108c7.588-5.173 17.935-3.449 23.108 3.794c4.139 5.518 7.933 16.555 10.347 23.798c1.035 3.104 4.829 3.449 5.863 0.345c2.759-7.243 6.898-17.935 11.382-24.143c5.173-7.243 15.52-8.967 23.108-3.794c7.588 5.173 9.657 15.175 4.139 23.108c-2.414 3.449-9.657 9.657-15.52 14.486c-2.759 2.414-1.035 5.863 2.414 5.173c7.933-1.724 17.59-3.794 22.073-3.794c9.312-0 16.555 7.588 16.555 16.555c0 9.312-7.588 16.9-16.555 16.9c-7.933-0-18.279-3.449-25.177-4.829c-2.759-0.345-3.449 2.414-1.38 4.139c5.518 4.484 14.83 11.726 17.59 15.865c5.518 7.933 3.449 17.935-4.139 23.108c-7.588 5.173-17.935 3.449-23.108-3.794c-5.863-7.933-9.312-22.763-12.761-27.592c-0.345-0.69-1.724-0.69-2.414-0c-3.794 4.829-6.553 19.314-12.416 27.592c-5.173 7.243-15.52 8.967-23.108 3.794c-7.588-5.173-9.657-15.175-4.139-23.108c2.414-3.104 8.277-8.277 13.796-12.761c2.759-2.414 1.035-5.863-2.414-5.173c-6.553 1.38-14.486 2.759-20.349 2.759c-8.967-0-16.555-7.588-16.555-16.9z" fill="#000000" stroke="none" /><path d="M249.869 636.265c0-14.199 7.099-27.023 16.947-35.955c3.664-2.748 3.664-6.183 0.229-9.618c-4.122-3.893-11.451-17.176-11.451-28.168c0-23.359 24.962-42.596 55.878-42.596c30.687-0 55.649 19.237 55.649 42.596c0 10.992-8.244 24.275-11.68 28.168c-2.977 3.435-3.435 6.87 0.458 9.618c9.847 8.931 16.947 21.756 16.947 35.955c0 28.397-27.481 50.611-61.375 50.611c-34.123-0-61.604-22.214-61.604-50.611zM311.473 586.799c13.283-0 24.275-9.389 24.275-21.298c0-11.451-10.992-20.84-24.275-20.84c-13.512-0-24.504 9.389-24.504 20.84c0 11.909 10.992 21.298 24.504 21.298zM311.473 663.289c16.718-0 30.458-11.909 30.458-26.794c0-14.428-13.741-26.336-30.458-26.336c-16.947-0-30.687 11.909-30.687 26.336c0 14.886 13.741 26.794 30.687 26.794z" fill="#000000" stroke="none" /></g><g transform="translate(9000,0)"><rect fill="#f0f0f0" stroke="#cacaca" stroke-width="10" x="19.948" y="19.948" width="960.105" height="960.105" rx="19.948" ry="19.948" /><path fill="url(#key-f0f0f0)" stroke="#cacaca" stroke-width="10" d="M190.026 129.659c0-44.067 35.723-79.79 79.79-79.79h460.367c44.067 0 79.79 35.723 79.79 79.79v570.604c0 44.067-35.723 79.79-79.79 79.79c-153.166 13.333-307.201 13.333-460.367 0c-44.067 0-79.79-35.723-79.79-79.79z" /><path d="M278.772 268.425c0 53.452 30.883 69.289 12.076 83.543c-20.193 15.244-40.98-41.574-40.98-80.376c0-44.939 26.132-99.777 44.345-86.513c16.629 12.076-15.442 38.604-15.442 83.345z" fill="#000000" stroke="none" /><path d="M249.869 576.396c0-31.131 25.279-56.411 56.176-56.411c38.855-0 69.752 21.3 69.752 71.391c0 41.196-8.661 95.5-61.794 95.5c-18.96-0-41.898-6.788-54.304-23.407c-4.915-6.554-4.681-19.896 2.107-24.811c10.767-7.724 18.96 0.702 24.577 7.49c5.618 6.788 15.214 12.406 24.343 12.406c17.321 0.234 29.961-15.683 29.493-31.365c0-2.809-3.043-3.979-5.384-2.341c-8.426 4.915-18.491 7.724-28.79 7.724c-30.897-0-56.176-25.279-56.176-56.176zM311.897 603.782c15.683 0.234 28.322-12.64 28.322-28.322c0-15.683-8.426-28.322-28.322-28.322c-15.917-0-28.556 12.64-28.556 28.322c0 15.683 7.724 28.088 28.556 28.322z" fill="#000000" stroke="none" /></g><g transform="translate(10000,0)"><rect fill="#f0f0f0" stroke="#cacaca" stroke-width="10" x="19.948" y="19.948" width="960.105" height="960.105" rx="19.948" ry="19.948" /><path fill="url(#key-f0f0f0)" stroke="#cacaca" stroke-width="10" d="M190.026 129.659c0-44.067 35.723-79.79 79.79-79.79h460.367c44.067 0 79.79 35.723 79.79 79.79v570.604c0 44.067-35.723 79.79-79.79 79.79c-153.166 13.333-307.201 13.333-460.367 0c-44.067 0-79.79-35.723-79.79-79.79z" /><path d="M265.31 268.425c0-44.741-32.071-71.269-15.442-83.345c18.213-13.264 44.345 41.574 44.345 86.513c0 38.802-20.787 95.619-40.98 80.376c-18.807-14.254 12.076-30.091 12.076-83.543z" fill="#000000" stroke="none" /><path d="M249.869 603.44c0-45.89 29.203-83.437 65.591-83.437c36.156-0 65.359 37.547 65.359 83.437c0 46.122-29.203 83.437-65.359 83.437c-36.388-0-65.591-37.315-65.591-83.437zM282.548 603.44c0 29.898 7.88 54.002 32.911 54.002c24.799-0 32.679-24.104 32.679-54.002c0-29.666-7.88-54.002-32.679-54.002c-25.031-0-32.911 24.336-32.911 54.002z" fill="#000000" stroke="none" /></g><g transform="translate(11000,0)"><rect fill="#f0f0f0" stroke="#cacaca" stroke-width="10" x="19.948" y="19.948" width="960.105" height="960.105" rx="19.948" ry="19.948" /><path fill="url(#key-f0f0f0)" stroke="#cacaca" stroke-width="10" d="M190.026 129.659c0-44.067 35.723-79.79 79.79-79.79h460.367c44.067 0 79.79 35.723 79.79 79.79v570.604c0 44.067-35.723 79.79-79.79 79.79c-153.166 13.333-307.201 13.333-460.367 0c-44.067 0-79.79-35.723-79.79-79.79z" /><path d="M416.775 319.962c9.381-0 16.808 6.99 16.808 15.819c0 9.197-7.427 16.187-16.808 16.187h-149.317h-0.391c-9.772-0-17.199-6.99-17.199-16.187c0-8.829 7.427-15.819 17.199-15.819h0.391h149.317z" fill="#000000" stroke="none" /><path d="M348.854 588.409c8.277-0 14.83 6.553 14.83 14.83c0 8.622-6.553 15.175-14.83 15.175h-83.465h-0.345c-8.622-0-15.175-6.553-15.175-15.175c0-8.277 6.553-14.83 15.175-14.83h0.345h83.465z" fill="#000000" stroke="none" /></g><g transform="translate(12000,0)"><rect fill="#f0f0f0" stroke="#cacaca" stroke-width="10" x="19.948" y="19.948" width="960.105" height="960.105" rx="19.948" ry="19.948" /><path fill="url(#key-f0f0f0)" stroke="#cacaca" stroke-width="10" d="M190.026 129.659c0-44.067 35.723-79.79 79.79-79.79h460.367c44.067 0 79.79 35.723 79.79 79.79v570.604c0 44.067-35.723 79.79-79.79 79.79c-153.166 13.333-307.201 13.333-460.367 0c-44.067 0-79.79-35.723-79.79-79.79z" /><path d="M249.869 268.504c0-8.737 7.128-15.865 15.865-15.865h22.073c3.219-0 5.748-2.529 5.748-5.748v-22.073c0-8.737 7.128-15.865 16.095-15.865c8.737-0 15.865 7.128 15.865 15.865v22.073c0 3.219 2.529 5.748 5.748 5.748h22.073c9.197-0 15.865 7.128 15.865 15.865c0 8.967-6.898 16.095-15.865 16.095h-22.073c-3.219-0-5.748 2.529-5.748 5.748v22.073c0 8.967-7.128 15.865-15.865 15.865c-8.967-0-16.095-6.898-16.095-15.865v-22.073c0-3.219-2.529-5.748-5.748-5.748h-22.073c-8.737-0-15.865-7.128-15.865-16.095z" fill="#000000" stroke="none" /><path d="M265.734 588.926c-8.737-0-15.865-7.128-15.865-16.095c0-8.737 7.128-15.865 15.865-15.865h87.603c9.197-0 15.865 7.128 15.865 15.865c0 8.967-6.898 16.095-15.865 16.095h-87.603zM353.337 617.898c9.197-0 15.865 7.128 15.865 15.865c0 8.967-6.898 16.095-15.865 16.095h-87.603c-8.737-0-15.865-7.128-15.865-16.095c0-8.737 7.128-15.865 15.865-15.865h87.603z" fill="#000000" stroke="none" /></g><g transform="translate(13000,0)"><rect fill="#f0f0f0" stroke="#cacaca" stroke-width="10" x="19.948" y="19.948" width="1960.105" height="960.105" rx="19.948" ry="19.948" /><path fill="url(#key-f0f0f0)" stroke="#cacaca" stroke-width="10" d="M190.026 129.659c0-44.067 35.723-79.79 79.79-79.79h1460.367c44.067 0 79.79 35.723 79.79 79.79v570.604c0 44.067-35.723 79.79-79.79 79.79c-486.698 13.333-973.67 13.333-1460.367 0c-44.067 0-79.79-35.723-79.79-79.79z" /><path d="M335.214 406.243c9.192 5.897 15.435 16.476 15.435 28.442c0 18.73-15.262 33.818-33.992 33.818h-51.855c-7.111-0-12.834-5.723-12.834-12.834v-94.171c0-6.937 5.723-12.66 12.834-12.66h50.988c16.129-0 29.656 13.354 29.656 29.656c0 9.018-4.162 17.169-10.579 22.546c-2.428 1.908-2.255 3.469 0.347 5.203zM278.503 370.517v24.974c0 2.081 1.387 3.295 3.815 3.295h19.771c10.232-0 18.557-6.937 18.557-15.782c0-8.671-8.325-15.782-18.557-15.782h-19.771c-2.428-0-3.815 1.387-3.815 3.295zM304.691 449.947c11.446-0 20.638-7.631 20.638-17.516c0-9.712-9.192-17.516-20.638-17.516h-21.852c-2.775-0-4.336 1.387-4.336 3.642v27.748c0 2.255 1.561 3.642 4.336 3.642h21.852zM370.151 440.907c0-22.434 24.926-32.048 40.772-30.802c6.944 0.534 15.312-0.178 15.312-6.588c0-5.341-4.273-9.97-9.258-9.97c-5.341-0-10.861 0.356-14.244 4.807c-3.739 4.807-13.709 10.149-19.763 3.205c-9.08-10.505 4.095-28.131 33.65-27.063c20.297 0.712 30.98 16.202 30.98 29.021v52.345c0 6.944-5.519 12.285-12.285 12.285c-3.383-0-6.41-1.424-8.724-3.383c-1.78-1.78-3.383-2.315-5.519-1.068c-5.163 3.027-11.395 4.807-18.16 4.807c-18.16-0-32.76-12.463-32.76-27.597zM391.516 439.305c0 6.232 6.944 9.792 15.312 9.792c8.368-0 14.422-4.629 17.092-9.792c1.602-3.027 2.315-10.505-0.712-12.463c-4.807-3.027-11.751-0-16.38 0.534c-8.546 1.068-15.312 3.205-15.312 11.929zM468.919 422.925c0-24.926 18.16-45.579 40.594-45.579c16.024-0 25.816 4.273 35.431 17.982c4.629 6.588 3.383 18.695-5.519 21.899c-7.122 2.671-13.175-3.561-16.202-9.614c-2.493-4.807-7.656-6.766-12.463-6.766c-10.149-0-18.16 10.505-18.16 23.858c0 13.175 8.012 23.858 18.16 23.858c4.451-0 10.505-1.424 13.887-5.163c2.671-2.849 8.724-12.997 15.312-11.217c11.573 3.027 5.519 17.804-0.534 23.858c-7.122 7.122-15.668 12.463-29.911 12.463c-22.434-0-40.594-20.475-40.594-45.579zM568.696 456.219v-92.939c0-6.766 5.519-12.285 12.463-12.285c6.766-0 12.285 5.519 12.285 12.285c0 23.502 0 33.472 1.068 40.238c0.89 3.739 4.985 4.273 7.478 1.246l12.463-14.422c3.561-3.917 7.478-7.656 12.107-7.656c5.875-0 10.683 4.807 10.683 10.683c0 3.561-1.602 6.41-3.917 9.08l-12.107 11.395c-2.315 2.315-3.205 5.519-1.246 8.368c6.053 8.724 11.929 17.27 17.092 25.994c2.137 3.561 3.383 6.232 3.383 9.258c0 6.232-4.807 11.039-10.683 11.039c-3.383-0-6.41-1.424-8.546-3.917c-5.341-7.478-10.683-17.626-15.846-26.35c-2.493-3.917-7.3-3.917-9.436 0.178c-2.315 4.451-2.493 6.41-2.493 17.804c0 6.944-5.519 12.285-12.285 12.285c-6.944-0-12.463-5.341-12.463-12.285zM726.608 439.839c0 11.751-12.285 27.419-34.362 27.419c-18.873-0-28.665-6.588-33.294-12.285c-3.027-3.739-4.095-11.039 2.137-15.134c4.095-2.671 9.97-0.178 13.709 3.917c3.027 3.205 5.519 5.341 16.38 5.341c10.327-0 14.6-4.095 14.6-8.19c0-4.807-4.985-8.012-15.134-8.724c-14.422-1.068-35.075-3.739-35.075-27.241c0-19.763 18.16-27.775 31.692-27.775c14.244-0 19.407 3.027 24.392 6.41c6.232 4.273 6.41 12.285 3.027 15.134c-3.739 3.205-10.683 1.78-14.065-0c-3.739-1.958-8.19-3.917-13.353-3.917c-8.546-0-11.929 3.917-11.929 9.258c0 4.985 9.614 9.792 19.585 9.792c22.79-0 31.692 14.6 31.692 25.994zM745.25 482.747v-92.939c0-6.766 5.519-12.285 12.463-12.285c3.383-0 6.41 1.424 8.724 3.739c1.602 1.602 3.383 1.958 5.163 1.068c5.697-3.205 12.285-4.985 19.229-4.985c23.502-0 40.416 20.653 40.416 45.579c0 25.104-16.914 45.579-40.416 45.579c-4.629-0-9.08-0.89-13.175-2.315c-4.095-1.246-7.656 0.89-7.656 4.985v11.573c0 6.944-5.519 12.285-12.285 12.285c-6.944-0-12.463-5.341-12.463-12.285zM769.107 422.925c0 14.244 8.724 25.638 19.585 25.638c10.683-0 19.407-11.395 19.407-25.638c0-14.244-8.724-25.638-19.407-25.638c-10.861-0-19.585 11.395-19.585 25.638zM848.231 440.907c0-22.434 24.926-32.048 40.772-30.802c6.944 0.534 15.312-0.178 15.312-6.588c0-5.341-4.273-9.97-9.258-9.97c-5.341-0-10.861 0.356-14.244 4.807c-3.739 4.807-13.709 10.149-19.763 3.205c-9.08-10.505 4.095-28.131 33.65-27.063c20.297 0.712 30.98 16.202 30.98 29.021v52.345c0 6.944-5.519 12.285-12.285 12.285c-3.383-0-6.41-1.424-8.724-3.383c-1.78-1.78-3.383-2.315-5.519-1.068c-5.163 3.027-11.395 4.807-18.16 4.807c-18.16-0-32.76-12.463-32.76-27.597zM869.597 439.305c0 6.232 6.944 9.792 15.312 9.792c8.368-0 14.422-4.629 17.092-9.792c1.602-3.027 2.315-10.505-0.712-12.463c-4.807-3.027-11.751-0-16.38 0.534c-8.546 1.068-15.312 3.205-15.312 11.929zM947 422.925c0-24.926 18.16-45.579 40.594-45.579c16.024-0 25.816 4.273 35.431 17.982c4.629 6.588 3.383 18.695-5.519 21.899c-7.122 2.671-13.175-3.561-16.202-9.614c-2.493-4.807-7.656-6.766-12.463-6.766c-10.149-0-18.16 10.505-18.16 23.858c0 13.175 8.012 23.858 18.16 23.858c4.451-0 10.505-1.424 13.887-5.163c2.671-2.849 8.724-12.997 15.312-11.217c11.573 3.027 5.519 17.804-0.534 23.858c-7.122 7.122-15.668 12.463-29.911 12.463c-22.434-0-40.594-20.475-40.594-45.579zM1041.792 422.925c0-24.926 19.763-45.579 44.155-45.579c20.653-0 36.143 19.051 38.636 32.582c2.671 14.065-3.027 21.543-17.092 21.543h-32.226c-7.122-0-10.327 4.985-6.41 10.683c3.561 5.163 9.436 7.122 15.49 7.122c13.709-0 15.668-4.807 25.104-4.807c7.122-0 12.285 7.834 5.163 14.244c-7.656 6.944-17.626 9.792-28.665 9.792c-24.392-0-44.155-20.475-44.155-45.579zM1064.403 409.571c-0.89 3.739 0.712 5.697 4.273 5.697h31.158c3.561-0 5.341-2.137 4.273-5.519c-1.958-6.41-8.902-12.819-19.763-12.819c-10.861-0-18.339 6.41-19.941 12.641z" fill="#000000" stroke="none" /></g><g transform="translate(0,1000)"><rect fill="#f0f0f0" stroke="#cacaca" stroke-width="10" x="19.948" y="19.948" width="1460.105" height="960.105" rx="19.948" ry="19.948" /><path fill="url(#key-f0f0f0)" stroke="#cacaca" stroke-width="10" d="M190.026 129.659c0-44.067 35.723-79.79 79.79-79.79h960.367c44.067 0 79.79 35.723 79.79 79.79v570.604c0 44.067-35.723 79.79-79.79 79.79c-319.984 13.333-640.384 13.333-960.367 0c-44.067 0-79.79-35.723-79.79-79.79z" /><path d="M328.626 348.819c6.594-0 12.034 5.44 12.034 12.034c0 6.594-5.44 11.87-12.034 11.87h-16.156c-2.638-0-4.121 1.484-4.121 4.121v79.625c0 6.594-5.44 12.034-12.034 12.034c-6.594-0-11.87-5.44-11.87-12.034v-79.625c0-2.638-1.484-4.121-4.121-4.121h-16.486c-6.594-0-11.87-5.44-11.87-12.034c0-6.429 5.275-11.87 11.87-11.87h64.788zM342.092 440.907c0-22.434 24.926-32.048 40.772-30.802c6.944 0.534 15.312-0.178 15.312-6.588c0-5.341-4.273-9.97-9.258-9.97c-5.341-0-10.861 0.356-14.244 4.807c-3.739 4.807-13.709 10.149-19.763 3.205c-9.08-10.505 4.095-28.131 33.65-27.063c20.297 0.712 30.98 16.202 30.98 29.021v52.345c0 6.944-5.519 12.285-12.285 12.285c-3.383-0-6.41-1.424-8.724-3.383c-1.78-1.78-3.383-2.315-5.519-1.068c-5.163 3.027-11.395 4.807-18.16 4.807c-18.16-0-32.76-12.463-32.76-27.597zM363.457 439.305c0 6.232 6.944 9.792 15.312 9.792c8.368-0 14.422-4.629 17.092-9.792c1.602-3.027 2.315-10.505-0.712-12.463c-4.807-3.027-11.751-0-16.38 0.534c-8.546 1.068-15.312 3.205-15.312 11.929zM450.474 456.041v-92.939c0-6.944 5.519-12.285 12.463-12.285c6.766-0 12.285 5.341 12.285 12.285v13.175c0 4.095 3.561 6.232 7.478 4.985c3.739-1.246 7.478-1.78 11.573-1.78c22.612-0 38.814 19.941 38.814 44.511c0 24.392-16.202 44.511-38.814 44.511c-6.41-0-12.463-1.602-17.804-4.451c-1.958-1.068-3.739-0.534-5.163 0.89c-2.137 2.137-5.163 3.383-8.368 3.383c-6.944-0-12.463-5.519-12.463-12.285zM474.332 425.595c0 13.887 7.656 25.104 17.448 25.104c9.614-0 17.27-11.217 17.27-25.104c0-13.887-7.656-24.926-17.27-24.926c-9.792-0-17.448 11.039-17.448 24.926z" fill="#000000" stroke="none" /></g><g transform="translate(1500,1000)"><rect fill="#f0f0f0" stroke="#cacaca" stroke-width="10" x="19.948" y="19.948" width="960.105" height="960.105" rx="19.948" ry="19.948" /><path fill="url(#key-f0f0f0)" stroke="#cacaca" stroke-width="10" d="M190.026 129.659c0-44.067 35.723-79.79 79.79-79.79h460.367c44.067 0 79.79 35.723 79.79 79.79v570.604c0 44.067-35.723 79.79-79.79 79.79c-153.166 13.333-307.201 13.333-460.367 0c-44.067 0-79.79-35.723-79.79-79.79z" /><path d="M458.331 335.452c7.408 7.055 7.055 17.991 0 25.046c-7.055 7.055-17.991 7.408-25.046-0l-9.524-9.524c-2.117-2.117-4.939-1.764-7.055-0.706c-15.874 10.23-34.217 15.874-53.619 15.874c-61.38-0-111.118-56.794-111.118-126.992c0-69.846 49.386-126.992 111.118-126.992c61.027-0 110.765 57.146 110.765 126.992c0 30.69-9.524 58.91-25.398 80.781c-1.058 2.117-1.058 4.586 1.058 6.702zM299.943 239.15c0 45.506 28.22 82.192 63.143 82.192c4.586-0 8.819-0.706 13.405-1.764c5.644-2.117 6.702-5.997 4.586-8.113c-7.055-7.055-7.055-18.343 0-25.046c7.408-7.055 17.991-7.055 25.046-0c4.586 4.586 7.055 2.117 8.819-0.706c6.702-13.052 10.935-29.279 10.935-46.564c0-45.153-28.22-82.192-62.791-82.192c-34.923-0-63.143 37.039-63.143 82.192z" fill="#000000" stroke="none" /></g><g transform="translate(2500,1000)"><rect fill="#f0f0f0" stroke="#cacaca" stroke-width="10" x="19.948" y="19.948" width="960.105" height="960.105" rx="19.948" ry="19.948" /><path fill="url(#key-f0f0f0)" stroke="#cacaca" stroke-width="10" d="M190.026 129.659c0-44.067 35.723-79.79 79.79-79.79h460.367c44.067 0 79.79 35.723 79.79 79.79v570.604c0 44.067-35.723 79.79-79.79 79.79c-153.166 13.333-307.201 13.333-460.367 0c-44.067 0-79.79-35.723-79.79-79.79z" /><path d="M336.036 366.142c-10.103-0-22.009-5.773-29.586-28.504l-54.482-191.948c-3.969-13.711 3.608-28.504 15.875-32.472c11.907-3.969 25.256 4.33 28.864 18.04l33.916 133.137c2.165 8.659 9.02 9.02 11.185 0.361l34.637-133.498c1.082-3.969 3.247-7.216 5.412-10.463c2.526-3.608 6.134-6.134 10.463-7.577c2.165-0.722 4.33-1.082 6.494-1.082c2.165-0 4.33 0.361 6.494 1.082c4.33 1.443 7.577 4.33 10.463 7.577c2.526 2.886 4.33 6.494 5.412 10.463l34.637 133.498c2.165 8.659 9.02 8.299 11.185-0.361l33.916-133.137c3.608-13.711 16.958-22.009 28.864-18.04c12.267 3.969 19.844 18.762 15.875 32.472l-54.482 191.948c-7.577 22.731-19.483 28.504-29.586 28.504c-7.938-0-25.617-5.773-30.308-28.504l-28.143-132.055c-1.443-6.855-7.216-6.855-8.659-0l-28.143 132.055c-4.69 22.731-22.37 28.504-30.308 28.504z" fill="#000000" stroke="none" /></g><g transform="translate(3500,1000)"><rect fill="#f0f0f0" stroke="#cacaca" stroke-width="10" x="19.948" y="19.948" width="960.105" height="960.105" rx="19.948" ry="19.948" /><path fill="url(#key-f0f0f0)" stroke="#cacaca" stroke-width="10" d="M190.026 129.659c0-44.067 35.723-79.79 79.79-79.79h460.367c44.067 0 79.79 35.723 79.79 79.79v570.604c0 44.067-35.723 79.79-79.79 79.79c-153.166 13.333-307.201 13.333-460.367 0c-44.067 0-79.79-35.723-79.79-79.79z" /><path d="M407.699 320.997c12.248-0 22.397 10.149 22.397 22.747c0 12.248-10.149 22.397-22.397 22.397h-130.534c-13.998-0-25.197-11.549-25.197-25.547v-202.975c0-13.998 11.199-25.547 25.197-25.547h130.534c12.248-0 22.397 10.149 22.397 22.397c0 12.598-10.149 22.747-22.397 22.747h-96.238c-5.599-0-8.749 3.15-8.749 8.749v34.996c0 5.599 3.15 8.749 8.749 8.749h71.741c12.248-0 22.397 10.149 22.397 22.397c0 12.598-10.149 22.747-22.397 22.747h-71.741c-5.599-0-8.749 3.15-8.749 8.749v48.644c0 5.599 3.15 8.749 8.749 8.749h96.238z" fill="#000000" stroke="none" /></g><g transform="translate(4500,1000)"><rect fill="#f0f0f0" stroke="#cacaca" stroke-width="10" x="19.948" y="19.948" width="960.105" height="960.105" rx="19.948" ry="19.948" /><path fill="url(#key-f0f0f0)" stroke="#cacaca" stroke-width="10" d="M190.026 129.659c0-44.067 35.723-79.79 79.79-79.79h460.367c44.067 0 79.79 35.723 79.79 79.79v570.604c0 44.067-35.723 79.79-79.79 79.79c-153.166 13.333-307.201 13.333-460.367 0c-44.067 0-79.79-35.723-79.79-79.79z" /><path d="M251.969 340.595v-202.975c0-14.348 11.199-25.547 25.197-25.547h81.89c44.094-0 80.49 26.947 79.79 71.041c-0.35 25.897-12.948 43.045-32.196 54.243c-5.249 3.15-4.899 5.249 0.35 8.399c18.548 11.199 26.597 36.045 26.597 60.542v34.296c0 13.998-11.549 25.547-25.547 25.547c-13.998-0-25.197-11.549-25.197-25.547v-34.296c0-15.748-6.299-43.395-43.045-43.395l-30.796 0.35c-4.199 0.7-6.299 3.5-6.299 8.399v68.941c0 13.998-11.549 25.547-25.547 25.547c-13.998-0-25.197-11.549-25.197-25.547zM302.712 220.56c0 4.899 3.15 7.699 8.749 7.699h39.895c23.097-0 41.645-15.748 41.645-35.696c0-19.948-18.548-36.045-41.645-36.045h-39.895c-5.599-0-8.749 2.8-8.749 7.699v56.343z" fill="#000000" stroke="none" /></g><g transform="translate(5500,1000)"><rect fill="#f0f0f0" stroke="#cacaca" stroke-width="10" x="19.948" y="19.948" width="960.105" height="960.105" rx="19.948" ry="19.948" /><path fill="url(#key-f0f0f0)" stroke="#cacaca" stroke-width="10" d="M190.026 129.659c0-44.067 35.723-79.79 79.79-79.79h460.367c44.067 0 79.79 35.723 79.79 79.79v570.604c0 44.067-35.723 79.79-79.79 79.79c-153.166 13.333-307.201 13.333-460.367 0c-44.067 0-79.79-35.723-79.79-79.79z" /><path d="M414.698 112.073c13.998-0 25.547 11.549 25.547 25.547c0 13.998-11.549 25.197-25.547 25.197h-34.296c-5.599-0-8.749 3.15-8.749 8.749v169.029c0 13.998-11.549 25.547-25.547 25.547c-13.998-0-25.197-11.549-25.197-25.547v-169.029c0-5.599-3.15-8.749-8.749-8.749h-34.996c-13.998-0-25.197-11.549-25.197-25.547c0-13.648 11.199-25.197 25.197-25.197h137.533z" fill="#000000" stroke="none" /></g><g transform="translate(6500,1000)"><rect fill="#f0f0f0" stroke="#cacaca" stroke-width="10" x="19.948" y="19.948" width="960.105" height="960.105" rx="19.948" ry="19.948" /><path fill="url(#key-f0f0f0)" stroke="#cacaca" stroke-width="10" d="M190.026 129.659c0-44.067 35.723-79.79 79.79-79.79h460.367c44.067 0 79.79 35.723 79.79 79.79v570.604c0 44.067-35.723 79.79-79.79 79.79c-153.166 13.333-307.201 13.333-460.367 0c-44.067 0-79.79-35.723-79.79-79.79z" /><path d="M251.969 140.935c-5.037-10.793-0.72-23.744 10.433-28.78c10.433-4.677 23.744-0.36 28.421 10.433l41.372 89.219c3.238 6.835 11.872 6.835 15.11-0l41.372-89.219c4.677-10.793 17.988-15.11 28.421-10.433c11.152 5.037 15.469 17.988 10.433 28.78l-59 120.518c-1.799 3.598-2.518 7.195-2.518 11.152v67.274c0 14.39-11.512 26.262-25.902 26.262h-0.72c-14.39-0-25.902-11.872-25.902-26.262v-67.274c0-3.957-0.72-7.555-2.518-11.152z" fill="#000000" stroke="none" /></g><g transform="translate(7500,1000)"><rect fill="#f0f0f0" stroke="#cacaca" stroke-width="10" x="19.948" y="19.948" width="960.105" height="960.105" rx="19.948" ry="19.948" /><path fill="url(#key-f0f0f0)" stroke="#cacaca" stroke-width="10" d="M190.026 129.659c0-44.067 35.723-79.79 79.79-79.79h460.367c44.067 0 79.79 35.723 79.79 79.79v570.604c0 44.067-35.723 79.79-79.79 79.79c-153.166 13.333-307.201 13.333-460.367 0c-44.067 0-79.79-35.723-79.79-79.79z" /><path d="M416.924 112.179c13.403-0 24.056 11.341 24.056 24.743v151.896c0 42.27-42.27 77.323-94.506 77.323c-52.58-0-94.506-34.709-94.506-77.323v-151.896c0-13.403 10.653-24.743 24.056-24.743c13.403-0 24.4 10.997 24.743 24.4v145.711c0 24.056 20.276 39.177 45.363 39.177c25.087-0 45.019-14.777 45.363-39.177l0.687-145.711c0.344-13.403 11.341-24.4 24.743-24.4z" fill="#000000" stroke="none" /></g><g transform="translate(8500,1000)"><rect fill="#f0f0f0" stroke="#cacaca" stroke-width="10" x="19.948" y="19.948" width="960.105" height="960.105" rx="19.948" ry="19.948" /><path fill="url(#key-f0f0f0)" stroke="#cacaca" stroke-width="10" d="M190.026 129.659c0-44.067 35.723-79.79 79.79-79.79h460.367c44.067 0 79.79 35.723 79.79 79.79v570.604c0 44.067-35.723 79.79-79.79 79.79c-153.166 13.333-307.201 13.333-460.367 0c-44.067 0-79.79-35.723-79.79-79.79z" /><path d="M277.165 112.073c13.998-0 25.547 11.549 25.547 25.547v202.975c0 13.998-11.549 25.547-25.547 25.547c-13.998-0-25.197-11.549-25.197-25.547v-202.975c0-13.998 11.199-25.547 25.197-25.547z" fill="#000000" stroke="none" /></g><g transform="translate(9500,1000)"><rect fill="#f0f0f0" stroke="#cacaca" stroke-width="10" x="19.948" y="19.948" width="960.105" height="960.105" rx="19.948" ry="19.948" /><path fill="url(#key-f0f0f0)" stroke="#cacaca" stroke-width="10" d="M190.026 129.659c0-44.067 35.723-79.79 79.79-79.79h460.367c44.067 0 79.79 35.723 79.79 79.79v570.604c0 44.067-35.723 79.79-79.79 79.79c-153.166 13.333-307.201 13.333-460.367 0c-44.067 0-79.79-35.723-79.79-79.79z" /><path d="M251.969 239.15c0-69.846 49.386-126.992 111.118-126.992c61.027-0 110.765 57.146 110.765 126.992c0 70.198-49.739 126.992-110.765 126.992c-61.38-0-111.118-56.794-111.118-126.992zM299.943 239.15c0 45.506 28.22 82.192 63.143 82.192c34.57-0 62.791-36.687 62.791-82.192c0-45.153-28.22-82.192-62.791-82.192c-34.923-0-63.143 37.039-63.143 82.192z" fill="#000000" stroke="none" /></g><g transform="translate(10500,1000)"><rect fill="#f0f0f0" stroke="#cacaca" stroke-width="10" x="19.948" y="19.948" width="960.105" height="960.105" rx="19.948" ry="19.948" /><path fill="url(#key-f0f0f0)" stroke="#cacaca" stroke-width="10" d="M190.026 129.659c0-44.067 35.723-79.79 79.79-79.79h460.367c44.067 0 79.79 35.723 79.79 79.79v570.604c0 44.067-35.723 79.79-79.79 79.79c-153.166 13.333-307.201 13.333-460.367 0c-44.067 0-79.79-35.723-79.79-79.79z" /><path d="M251.969 340.595v-202.975c0-13.998 11.199-25.547 25.197-25.547h81.89c44.094-0 79.79 35.696 79.79 79.79c0 44.094-35.696 79.44-79.79 79.44h-47.594c-4.899-0-8.749 3.85-8.749 8.749v60.542c0 13.998-11.549 25.547-25.547 25.547c-13.998-0-25.197-11.549-25.197-25.547zM302.712 225.109c0 5.599 3.15 8.749 8.749 8.749h33.596c22.747-0 41.645-17.498 41.645-41.295c0-23.097-18.548-41.645-41.645-41.645h-33.596c-5.599-0-8.749 3.15-8.749 8.749v65.442z" fill="#000000" stroke="none" /></g><g transform="translate(11500,1000)"><rect fill="#f0f0f0" stroke="#cacaca" stroke-width="10" x="19.948" y="19.948" width="960.105" height="960.105" rx="19.948" ry="19.948" /><path fill="url(#key-f0f0f0)" stroke="#cacaca" stroke-width="10" d="M190.026 129.659c0-44.067 35.723-79.79 79.79-79.79h460.367c44.067 0 79.79 35.723 79.79 79.79v570.604c0 44.067-35.723 79.79-79.79 79.79c-153.166 13.333-307.201 13.333-460.367 0c-44.067 0-79.79-35.723-79.79-79.79z" /><path d="M300.223 192.167c-7.818-14.256-40.468 11.037-40.468 33.11c0 21.154 8.048 21.383 8.048 35.869c0 15.175-17.935 17.245-17.935 27.592c0 9.197 18.854 16.785 18.854 27.822c0 13.796-8.737 21.154-8.737 34.719c0 34.719 33.11 42.767 38.398 31.96c7.128-14.716-15.635-11.496-15.635-29.431c0-11.496 7.128-5.978 7.128-33.57c0-17.245-13.336-29.201-13.336-32.42c0-3.679 14.256-9.427 14.256-30.351c0-19.314-6.668-21.843-6.668-33.8c0-12.876 22.763-19.314 16.095-31.5z" fill="#000000" stroke="none" /><path d="M308.521 675.067c0 6.298-5.314 11.809-11.809 11.809h-35.034c-6.298-0-11.809-5.511-11.809-11.809v-143.285c0-6.495 5.511-11.809 11.809-11.809h35.034c6.495-0 11.809 5.314 11.809 11.809c0 6.298-5.314 11.809-11.809 11.809h-18.304c-2.755-0-4.921 2.165-4.921 4.921v109.826c0 2.755 2.165 4.921 4.921 4.921h18.304c6.495-0 11.809 5.314 11.809 11.809z" fill="#000000" stroke="none" /></g><g transform="translate(12500,1000)"><rect fill="#f0f0f0" stroke="#cacaca" stroke-width="10" x="19.948" y="19.948" width="960.105" height="960.105" rx="19.948" ry="19.948" /><path fill="url(#key-f0f0f0)" stroke="#cacaca" stroke-width="10" d="M190.026 129.659c0-44.067 35.723-79.79 79.79-79.79h460.367c44.067 0 79.79 35.723 79.79 79.79v570.604c0 44.067-35.723 79.79-79.79 79.79c-153.166 13.333-307.201 13.333-460.367 0c-44.067 0-79.79-35.723-79.79-79.79z" /><path d="M249.869 192.167c-6.668 12.186 16.095 18.624 16.095 31.5c0 11.956-6.668 14.486-6.668 33.8c0 20.924 14.256 26.672 14.256 30.351c0 3.219-13.336 15.175-13.336 32.42c0 27.592 7.128 22.073 7.128 33.57c0 17.935-22.763 14.716-15.635 29.431c5.288 10.807 38.398 2.759 38.398-31.96c0-13.566-8.737-20.924-8.737-34.719c0-11.037 18.854-18.624 18.854-27.822c0-10.347-17.935-12.416-17.935-27.592c0-14.486 8.048-14.716 8.048-35.869c0-22.073-32.65-47.366-40.468-33.11z" fill="#000000" stroke="none" /><path d="M249.869 675.067c0-6.495 5.314-11.809 11.809-11.809h18.304c2.755-0 4.921-2.165 4.921-4.921v-109.826c0-2.755-2.165-4.921-4.921-4.921h-18.304c-6.495-0-11.809-5.511-11.809-11.809c0-6.495 5.314-11.809 11.809-11.809h35.034c6.298-0 11.809 5.314 11.809 11.809v143.285c0 6.298-5.511 11.809-11.809 11.809h-35.034c-6.495-0-11.809-5.511-11.809-11.809z" fill="#000000" stroke="none" /></g><g transform="translate(13500,1000)"><rect fill="#f0f0f0" stroke="#cacaca" stroke-width="10" x="19.948" y="19.948" width="1460.105" height="960.105" rx="19.948" ry="19.948" /><path fill="url(#key-f0f0f0)" stroke="#cacaca" stroke-width="10" d="M190.026 129.659c0-44.067 35.723-79.79 79.79-79.79h960.367c44.067 0 79.79 35.723 79.79 79.79v570.604c0 44.067-35.723 79.79-79.79 79.79c-319.984 13.333-640.384 13.333-960.367 0c-44.067 0-79.79-35.723-79.79-79.79z" /><path d="M265.964 182.97c8.737-0 15.865 7.128 15.865 15.865v52.424c-0.23 8.967-7.128 15.635-15.865 15.635c-8.967-0-15.865-6.668-16.095-15.635v-52.424c0-8.737 7.128-15.865 16.095-15.865zM265.964 299.544c8.737-0 15.865 7.128 15.865 15.865v52.424c-0.23 8.967-7.128 15.635-15.865 15.635c-8.967-0-15.865-6.668-16.095-15.635v-52.424c0-8.737 7.128-15.865 16.095-15.865z" fill="#000000" stroke="none" /><path d="M363.224 672.851c4.829 7.128 2.759 16.325-4.599 21.154c-6.668 4.369-15.865 2.529-20.464-4.829l-88.293-134.969c-4.599-6.668-2.759-15.865 4.369-20.234c6.898-4.829 16.095-2.759 20.234 4.139z" fill="#000000" stroke="none" /></g><g transform="translate(0,2000)"><rect fill="#f0f0f0" stroke="#cacaca" stroke-width="10" x="19.948" y="19.948" width="1710.105" height="960.105" rx="19.948" ry="19.948" /><path fill="url(#key-f0f0f0)" stroke="#cacaca" stroke-width="10" d="M190.026 129.659c0-44.067 35.723-79.79 79.79-79.79h1210.367c44.067 0 79.79 35.723 79.79 79.79v570.604c0 44.067-35.723 79.79-79.79 79.79c-403.346 13.333-807.022 13.333-1210.367 0c-44.067 0-79.79-35.723-79.79-79.79z" /><path d="M342.035 428.29c5.982 2.493 8.641 8.973 5.65 13.792c-9.472 15.953-25.425 26.422-43.371 26.422c-28.914-0-52.345-26.754-52.345-59.823c0-32.903 23.264-59.823 52.345-59.823c18.778-0 35.063 11.3 44.202 28.25c0.166-0 0.166 0.166 0.166 0.166c2.991 5.65-0.499 11.965-5.982 14.291c-5.484 2.326-11.466-0.499-14.623-5.982c-5.484-9.472-14.125-15.62-23.763-15.62c-16.451-0-29.745 17.448-29.745 38.719c0 21.436 13.294 38.719 29.745 38.719c8.807-0 16.617-4.985 22.101-13.128l0.166-0.166c3.656-5.151 9.97-8.143 15.454-5.816zM368.901 440.907c0-22.434 24.926-32.048 40.772-30.802c6.944 0.534 15.312-0.178 15.312-6.588c0-5.341-4.273-9.97-9.258-9.97c-5.341-0-10.861 0.356-14.244 4.807c-3.739 4.807-13.709 10.149-19.763 3.205c-9.08-10.505 4.095-28.131 33.65-27.063c20.297 0.712 30.98 16.202 30.98 29.021v52.345c0 6.944-5.519 12.285-12.285 12.285c-3.383-0-6.41-1.424-8.724-3.383c-1.78-1.78-3.383-2.315-5.519-1.068c-5.163 3.027-11.395 4.807-18.16 4.807c-18.16-0-32.76-12.463-32.76-27.597zM390.266 439.305c0 6.232 6.944 9.792 15.312 9.792c8.368-0 14.422-4.629 17.092-9.792c1.602-3.027 2.315-10.505-0.712-12.463c-4.807-3.027-11.751-0-16.38 0.534c-8.546 1.068-15.312 3.205-15.312 11.929zM470.34 482.747v-92.939c0-6.766 5.519-12.285 12.463-12.285c3.383-0 6.41 1.424 8.724 3.739c1.602 1.602 3.383 1.958 5.163 1.068c5.697-3.205 12.285-4.985 19.229-4.985c23.502-0 40.416 20.653 40.416 45.579c0 25.104-16.914 45.579-40.416 45.579c-4.629-0-9.08-0.89-13.175-2.315c-4.095-1.246-7.656 0.89-7.656 4.985v11.573c0 6.944-5.519 12.285-12.285 12.285c-6.944-0-12.463-5.341-12.463-12.285zM494.198 422.925c0 14.244 8.724 25.638 19.585 25.638c10.683-0 19.407-11.395 19.407-25.638c0-14.244-8.724-25.638-19.407-25.638c-10.861-0-19.585 11.395-19.585 25.638zM645.074 439.839c0 11.751-12.285 27.419-34.362 27.419c-18.873-0-28.665-6.588-33.294-12.285c-3.027-3.739-4.095-11.039 2.137-15.134c4.095-2.671 9.97-0.178 13.709 3.917c3.027 3.205 5.519 5.341 16.38 5.341c10.327-0 14.6-4.095 14.6-8.19c0-4.807-4.985-8.012-15.134-8.724c-14.422-1.068-35.075-3.739-35.075-27.241c0-19.763 18.16-27.775 31.692-27.775c14.244-0 19.407 3.027 24.392 6.41c6.232 4.273 6.41 12.285 3.027 15.134c-3.739 3.205-10.683 1.78-14.065-0c-3.739-1.958-8.19-3.917-13.353-3.917c-8.546-0-11.929 3.917-11.929 9.258c0 4.985 9.614 9.792 19.585 9.792c22.79-0 31.692 14.6 31.692 25.994zM710.699 456.469v-95.616c0-6.594 5.275-12.034 11.87-12.034c6.594-0 12.034 5.44 12.034 12.034v79.625c0 2.638 1.484 4.121 4.121 4.121h47.973c6.594-0 12.034 5.275 12.034 11.87c0 6.594-5.44 12.034-12.034 12.034h-63.964c-6.594-0-12.034-5.44-12.034-12.034zM810.733 422.925c0-24.926 19.763-45.579 44.155-45.579c24.392-0 43.977 20.653 43.977 45.579c0 25.104-19.585 45.579-43.977 45.579c-24.392-0-44.155-20.475-44.155-45.579zM833.701 422.925c0 14.244 9.436 25.638 21.187 25.638c11.395-0 20.831-11.395 20.831-25.638c0-14.244-9.436-25.638-20.831-25.638c-11.751-0-21.187 11.395-21.187 25.638zM913.933 422.925c0-24.926 18.16-45.579 40.594-45.579c16.024-0 25.816 4.273 35.431 17.982c4.629 6.588 3.383 18.695-5.519 21.899c-7.122 2.671-13.175-3.561-16.202-9.614c-2.493-4.807-7.656-6.766-12.463-6.766c-10.149-0-18.16 10.505-18.16 23.858c0 13.175 8.012 23.858 18.16 23.858c4.451-0 10.505-1.424 13.887-5.163c2.671-2.849 8.724-12.997 15.312-11.217c11.573 3.027 5.519 17.804-0.534 23.858c-7.122 7.122-15.668 12.463-29.911 12.463c-22.434-0-40.594-20.475-40.594-45.579zM1013.71 456.219v-92.939c0-6.766 5.519-12.285 12.463-12.285c6.766-0 12.285 5.519 12.285 12.285c0 23.502 0 33.472 1.068 40.238c0.89 3.739 4.985 4.273 7.478 1.246l12.463-14.422c3.561-3.917 7.478-7.656 12.107-7.656c5.875-0 10.683 4.807 10.683 10.683c0 3.561-1.602 6.41-3.917 9.08l-12.107 11.395c-2.315 2.315-3.205 5.519-1.246 8.368c6.053 8.724 11.929 17.27 17.092 25.994c2.137 3.561 3.383 6.232 3.383 9.258c0 6.232-4.807 11.039-10.683 11.039c-3.383-0-6.41-1.424-8.546-3.917c-5.341-7.478-10.683-17.626-15.846-26.35c-2.493-3.917-7.3-3.917-9.436 0.178c-2.315 4.451-2.493 6.41-2.493 17.804c0 6.944-5.519 12.285-12.285 12.285c-6.944-0-12.463-5.341-12.463-12.285z" fill="#000000" stroke="none" /></g><g transform="translate(1750,2000)"><rect fill="#f0f0f0" stroke="#cacaca" stroke-width="10" x="19.948" y="19.948" width="960.105" height="960.105" rx="19.948" ry="19.948" /><path fill="url(#key-f0f0f0)" stroke="#cacaca" stroke-width="10" d="M190.026 129.659c0-44.067 35.723-79.79 79.79-79.79h460.367c44.067 0 79.79 35.723 79.79 79.79v570.604c0 44.067-35.723 79.79-79.79 79.79c-153.166 13.333-307.201 13.333-460.367 0c-44.067 0-79.79-35.723-79.79-79.79z" /><path d="M470.168 332.705c1.034 2.413 1.724 5.171 1.724 8.273c0 13.788-11.375 25.164-25.164 25.164c-11.375-0-21.717-8.273-24.474-19.304l-17.235-54.808c-1.379-4.826-5.171-7.239-9.997-7.239h-66.184c-4.826-0-8.618 2.413-9.997 7.239l-17.235 54.808c-2.758 11.031-13.099 19.304-24.474 19.304c-13.788-0-25.164-11.375-25.164-25.164c0-3.102 0.689-5.86 1.724-8.273l66.873-195.794c3.792-14.133 19.993-24.819 39.641-24.819c19.648-0 35.85 10.686 39.641 24.819zM381.923 247.907c6.205-0 8.962-3.792 7.239-9.652l-17.925-56.187c-1.379-4.826-4.481-7.239-8.273-7.239c-3.792-0-6.894 2.413-8.273 7.239l-17.925 56.187c-1.724 5.86 1.034 9.652 7.239 9.652h37.918z" fill="#000000" stroke="none" /></g><g transform="translate(2750,2000)"><rect fill="#f0f0f0" stroke="#cacaca" stroke-width="10" x="19.948" y="19.948" width="960.105" height="960.105" rx="19.948" ry="19.948" /><path fill="url(#key-f0f0f0)" stroke="#cacaca" stroke-width="10" d="M190.026 129.659c0-44.067 35.723-79.79 79.79-79.79h460.367c44.067 0 79.79 35.723 79.79 79.79v570.604c0 44.067-35.723 79.79-79.79 79.79c-153.166 13.333-307.201 13.333-460.367 0c-44.067 0-79.79-35.723-79.79-79.79z" /><path d="M435.972 290.334c0 34.167-26.337 75.808-84.35 75.808c-48.759-0-83.994-14.592-99.654-47.691c-5.694-12.101-7.83-29.54 10.677-35.235c13.169-3.915 25.625 1.78 30.964 16.728c4.627 12.457 16.728 27.405 44.844 27.405c27.049-0 49.827-8.898 49.827-28.828c0-19.219-22.422-32.743-47.335-38.794c-36.658-8.898-87.909-22.422-87.909-82.214c0-40.929 46.98-65.487 82.57-65.487c37.37-0 58.369 7.474 80.435 29.54c19.219 19.219 13.169 40.929 4.271 47.691c-10.321 7.83-27.405 9.609-36.302-8.186c-5.694-11.389-17.795-26.337-41.997-26.337c-28.472-0-42.709 13.169-42.709 28.828c0 24.913 60.504 35.235 86.129 41.641c28.117 7.118 50.539 32.387 50.539 65.131z" fill="#000000" stroke="none" /></g><g transform="translate(3750,2000)"><rect fill="#f0f0f0" stroke="#cacaca" stroke-width="10" x="19.948" y="19.948" width="960.105" height="960.105" rx="19.948" ry="19.948" /><path fill="url(#key-f0f0f0)" stroke="#cacaca" stroke-width="10" d="M190.026 129.659c0-44.067 35.723-79.79 79.79-79.79h460.367c44.067 0 79.79 35.723 79.79 79.79v570.604c0 44.067-35.723 79.79-79.79 79.79c-153.166 13.333-307.201 13.333-460.367 0c-44.067 0-79.79-35.723-79.79-79.79z" /><path d="M348.556 112.073c61.592-0 110.936 61.942 110.936 129.134c0 67.542-49.694 124.934-110.936 124.934h-71.391c-13.998-0-25.197-11.549-25.197-25.547v-202.975c0-13.998 11.199-25.547 25.197-25.547h71.391zM340.507 324.497c39.895-0 71.741-36.745 71.741-80.84c0-43.745-31.846-83.99-71.741-83.99h-29.046c-5.599-0-8.749 3.15-8.749 8.749v147.332c0 5.599 3.15 8.749 8.749 8.749h29.046z" fill="#000000" stroke="none" /></g><g transform="translate(4750,2000)"><rect fill="#f0f0f0" stroke="#cacaca" stroke-width="10" x="19.948" y="19.948" width="960.105" height="960.105" rx="19.948" ry="19.948" /><path fill="url(#scoop-f0f0f0)" stroke="#cacaca" stroke-width="10" d="M190.026 129.659c0-44.067 35.723-79.79 79.79-79.79h460.367c44.067 0 79.79 35.723 79.79 79.79v570.604c0 44.067-35.723 79.79-79.79 79.79c-150.849 40-309.518 40-460.367 0c-44.067 0-79.79-35.723-79.79-79.79z" /><path d="M407.699 112.073c12.248-0 22.397 10.149 22.397 22.397c0 12.598-10.149 22.747-22.397 22.747h-96.238c-5.599-0-8.749 3.15-8.749 8.749v34.996c0 5.599 3.15 8.749 8.749 8.749h71.741c12.248-0 22.397 10.149 22.397 22.397c0 12.598-10.149 22.747-22.397 22.747h-71.741c-5.599-0-8.749 3.15-8.749 8.749v76.99c0 13.998-11.549 25.547-25.547 25.547c-13.998-0-25.197-11.549-25.197-25.547v-202.975c0-13.998 10.849-25.197 24.847-25.547h130.884z" fill="#000000" stroke="none" /></g><g transform="translate(5750,2000)"><rect fill="#f0f0f0" stroke="#cacaca" stroke-width="10" x="19.948" y="19.948" width="960.105" height="960.105" rx="19.948" ry="19.948" /><path fill="url(#key-f0f0f0)" stroke="#cacaca" stroke-width="10" d="M190.026 129.659c0-44.067 35.723-79.79 79.79-79.79h460.367c44.067 0 79.79 35.723 79.79 79.79v570.604c0 44.067-35.723 79.79-79.79 79.79c-153.166 13.333-307.201 13.333-460.367 0c-44.067 0-79.79-35.723-79.79-79.79z" /><path d="M451.981 237.033c11.288-0 17.991 6.702 17.638 17.638c-2.469 71.609-46.917 111.471-106.532 111.471c-61.38-0-111.118-56.794-111.118-126.992c0-69.846 49.386-126.992 111.118-126.992c38.45-0 72.315 22.576 92.069 57.146c0.353 0.353 0.706 0.706 1.058 1.411c6.35 11.994 1.058 29.279-10.583 34.217c-11.641 4.939-24.34-1.058-31.043-12.699c0-0.353-0.353-0.706-0.353-0.706c-11.288-20.813-30.337-34.57-51.15-34.57c-34.923-0-63.143 37.039-63.143 82.192c0 45.506 28.22 82.192 63.143 82.192c21.871-0 41.272-14.816 52.208-37.039c3.175-5.997 0-10.23-6.702-10.23h-18.343h-0.353c-10.583-0-18.696-8.113-18.696-18.696c0-10.23 8.113-18.343 18.696-18.343h0.353h61.732z" fill="#000000" stroke="none" /></g><g transform="translate(6750,2000)"><rect fill="#f0f0f0" stroke="#cacaca" stroke-width="10" x="19.948" y="19.948" width="960.105" height="960.105" rx="19.948" ry="19.948" /><path fill="url(#key-f0f0f0)" stroke="#cacaca" stroke-width="10" d="M190.026 129.659c0-44.067 35.723-79.79 79.79-79.79h460.367c44.067 0 79.79 35.723 79.79 79.79v570.604c0 44.067-35.723 79.79-79.79 79.79c-153.166 13.333-307.201 13.333-460.367 0c-44.067 0-79.79-35.723-79.79-79.79z" /><path d="M417.498 112.073c13.998-0 25.547 11.549 25.547 25.547v202.975c0 13.998-11.549 25.547-25.547 25.547c-13.998-0-25.197-11.549-25.197-25.547v-78.74c0-5.599-3.15-8.749-8.749-8.749h-72.091c-5.599-0-8.749 3.15-8.749 8.749v78.74c0 13.998-11.549 25.547-25.547 25.547c-13.998-0-25.197-11.549-25.197-25.547v-202.975c0-13.998 11.199-25.547 25.197-25.547c13.998-0 25.547 11.549 25.547 25.547v67.542c0 5.599 3.15 8.749 8.749 8.749h72.091c5.599-0 8.749-3.15 8.749-8.749v-67.542c0-13.998 11.199-25.547 25.197-25.547z" fill="#000000" stroke="none" /></g><g transform="translate(7750,2000)"><rect fill="#f0f0f0" stroke="#cacaca" stroke-width="10" x="19.948" y="19.948" width="960.105" height="960.105" rx="19.948" ry="19.948" /><path fill="url(#scoop-f0f0f0)" stroke="#cacaca" stroke-width="10" d="M190.026 129.659c0-44.067 35.723-79.79 79.79-79.79h460.367c44.067 0 79.79 35.723 79.79 79.79v570.604c0 44.067-35.723 79.79-79.79 79.79c-150.849 40-309.518 40-460.367 0c-44.067 0-79.79-35.723-79.79-79.79z" /><path d="M375.593 112.006c13.774-0 25.138 11.019 25.138 25.138v154.616c0 40.978-33.403 74.381-74.381 74.381c-40.978-0-74.381-33.403-74.381-74.381c0-11.019 8.609-19.973 19.628-19.973c11.019-0 19.973 8.953 19.973 19.973c0 18.94 16.873 34.436 32.37 34.436c14.807-0 26.86-9.298 26.86-24.794v-164.258c0-13.774 11.019-25.138 24.794-25.138z" fill="#000000" stroke="none" /></g><g transform="translate(8750,2000)"><rect fill="#f0f0f0" stroke="#cacaca" stroke-width="10" x="19.948" y="19.948" width="960.105" height="960.105" rx="19.948" ry="19.948" /><path fill="url(#key-f0f0f0)" stroke="#cacaca" stroke-width="10" d="M190.026 129.659c0-44.067 35.723-79.79 79.79-79.79h460.367c44.067 0 79.79 35.723 79.79 79.79v570.604c0 44.067-35.723 79.79-79.79 79.79c-153.166 13.333-307.201 13.333-460.367 0c-44.067 0-79.79-35.723-79.79-79.79z" /><path d="M435.696 327.997c7.349 11.549 3.85 26.947-7.699 34.646c-11.549 7.699-27.997 4.549-35.346-7.699l-61.942-97.988c-3.15-5.249-8.049-5.949-12.248-1.4l-11.199 11.549c-3.15 3.15-4.549 6.649-4.549 10.849v62.642c0 13.998-11.549 25.547-25.547 25.547c-13.998-0-25.197-11.549-25.197-25.547v-202.975c0-13.998 11.199-25.547 25.197-25.547c13.998-0 25.547 11.549 25.547 25.547v55.993c0 8.049 5.599 10.149 10.849 4.199l66.492-75.591c1.05-1.4 2.1-2.8 3.5-3.85c10.149-9.449 25.897-9.099 35.696 1.05c9.799 10.149 9.449 26.247-1.05 36.045l-54.243 54.593c-3.5 3.85-3.85 8.049-1.05 12.248l71.741 104.287z" fill="#000000" stroke="none" /></g><g transform="translate(9750,2000)"><rect fill="#f0f0f0" stroke="#cacaca" stroke-width="10" x="19.948" y="19.948" width="960.105" height="960.105" rx="19.948" ry="19.948" /><path fill="url(#key-f0f0f0)" stroke="#cacaca" stroke-width="10" d="M190.026 129.659c0-44.067 35.723-79.79 79.79-79.79h460.367c44.067 0 79.79 35.723 79.79 79.79v570.604c0 44.067-35.723 79.79-79.79 79.79c-153.166 13.333-307.201 13.333-460.367 0c-44.067 0-79.79-35.723-79.79-79.79z" /><path d="M251.969 340.595v-202.975c0-13.998 11.199-25.547 25.197-25.547c13.998-0 25.547 11.549 25.547 25.547v169.029c0 5.599 3.15 8.749 8.749 8.749h101.837c13.998-0 25.547 11.199 25.547 25.197c0 13.998-11.549 25.547-25.547 25.547h-135.783c-13.998-0-25.547-11.549-25.547-25.547z" fill="#000000" stroke="none" /></g><g transform="translate(10750,2000)"><rect fill="#f0f0f0" stroke="#cacaca" stroke-width="10" x="19.948" y="19.948" width="960.105" height="960.105" rx="19.948" ry="19.948" /><path fill="url(#key-f0f0f0)" stroke="#cacaca" stroke-width="10" d="M190.026 129.659c0-44.067 35.723-79.79 79.79-79.79h460.367c44.067 0 79.79 35.723 79.79 79.79v570.604c0 44.067-35.723 79.79-79.79 79.79c-153.166 13.333-307.201 13.333-460.367 0c-44.067 0-79.79-35.723-79.79-79.79z" /><path d="M273.322 231.945c-13.106-0-23.453-10.347-23.453-23.453c0-12.416 10.347-22.763 23.453-22.763c12.761-0 22.763 10.347 22.763 22.763c0 13.106-10.347 23.453-22.763 23.453zM273.322 351.969c-13.106-0-23.453-10.347-23.453-23.453c0-12.416 10.347-22.763 23.453-22.763c12.416-0 22.763 10.347 22.763 22.763c0 13.106-10.347 23.453-22.763 23.453z" fill="#000000" stroke="none" /><path d="M278.15 566.853c-13.106-0-23.453-10.347-23.453-23.453c0-12.416 10.347-22.763 23.453-22.763c12.761-0 22.763 10.347 22.763 22.763c0 13.106-10.347 23.453-22.763 23.453zM249.869 663.424c0-12.416 10.347-22.763 23.453-22.763c20.349-0 26.212 19.314 26.212 32.42c0 20.004-18.969 43.802-23.108 49.32c-4.829 6.208-14.141 5.863-18.279 2.414c-5.173-4.139-5.173-11.037-2.759-15.175c4.484-7.933 6.208-10.692 10.692-18.279c1.38-2.759 0.345-5.173-2.414-6.553c-8.277-3.449-13.796-11.726-13.796-21.383z" fill="#000000" stroke="none" /></g><g transform="translate(11750,2000)"><rect fill="#f0f0f0" stroke="#cacaca" stroke-width="10" x="19.948" y="19.948" width="960.105" height="960.105" rx="19.948" ry="19.948" /><path fill="url(#key-f0f0f0)" stroke="#cacaca" stroke-width="10" d="M190.026 129.659c0-44.067 35.723-79.79 79.79-79.79h460.367c44.067 0 79.79 35.723 79.79 79.79v570.604c0 44.067-35.723 79.79-79.79 79.79c-153.166 13.333-307.201 13.333-460.367 0c-44.067 0-79.79-35.723-79.79-79.79z" /><path d="M265.044 185.039c8.277-0 15.175 8.277 15.175 18.164v63.691c0 9.887-6.898 18.164-15.175 18.164c-8.277-0-15.175-8.277-15.175-18.164v-63.691c0-9.887 6.898-18.164 15.175-18.164zM334.023 185.039c8.277-0 15.175 8.277 15.175 18.164v63.691c0 9.887-6.898 18.164-15.175 18.164c-8.277-0-15.175-8.277-15.175-18.164v-63.691c0-9.887 6.898-18.164 15.175-18.164z" fill="#000000" stroke="none" /><path d="M265.044 519.948c8.277-0 15.175 8.277 15.175 18.164v63.691c0 9.887-6.898 18.164-15.175 18.164c-8.277-0-15.175-8.277-15.175-18.164v-63.691c0-9.887 6.898-18.164 15.175-18.164z" fill="#000000" stroke="none" /></g><g transform="translate(12750,2000)"><rect fill="#f0f0f0" stroke="#cacaca" stroke-width="10" x="19.948" y="19.948" width="2210.105" height="960.105" rx="19.948" ry="19.948" /><path fill="url(#key-f0f0f0)" stroke="#cacaca" stroke-width="10" d="M190.026 129.659c0-44.067 35.723-79.79 79.79-79.79h1710.367c44.067 0 79.79 35.723 79.79 79.79v570.604c0 44.067-35.723 79.79-79.79 79.79c-570.045 13.333-1140.323 13.333-1710.367 0c-44.067 0-79.79-35.723-79.79-79.79z" /><path d="M325.329 447.238c5.77-0 10.551 4.781 10.551 10.716c0 5.77-4.781 10.551-10.551 10.551h-61.491c-6.594-0-11.87-5.44-11.87-12.034v-95.616c0-6.594 5.275-12.034 11.87-12.034h61.491c5.77-0 10.551 4.781 10.551 10.551c0 5.935-4.781 10.716-10.551 10.716h-45.335c-2.638-0-4.121 1.484-4.121 4.121v16.486c0 2.638 1.484 4.121 4.121 4.121h33.795c5.77-0 10.551 4.781 10.551 10.551c0 5.935-4.781 10.716-10.551 10.716h-33.795c-2.638-0-4.121 1.484-4.121 4.121v22.915c0 2.638 1.484 4.121 4.121 4.121h45.335zM403.8 374.141c18.517-0 29.555 13.887 29.555 27.241v54.838c0 6.944-5.519 12.285-12.285 12.285c-6.944-0-12.463-5.341-12.463-12.285v-48.606c0-6.766-7.122-11.395-14.422-11.395c-7.122-0-14.6 4.273-14.6 11.395v48.606c0 6.944-5.519 12.285-12.285 12.285c-6.944-0-12.463-5.341-12.463-12.285v-69.793c0-6.766 5.519-12.285 12.463-12.285c4.095-0 7.834 1.958 10.149 5.163c1.424 2.137 3.561 3.205 5.519 1.78c3.739-2.849 9.792-6.944 20.831-6.944zM491.319 379.126c4.451 1.068 6.588 4.451 6.588 8.012c0 3.917-2.315 7.122-6.588 8.19c-1.78 0.356-3.027 1.602-3.027 3.383v57.508c0 6.944-5.519 12.285-12.285 12.285c-6.944-0-12.463-5.341-12.463-12.285v-57.508c0-1.78-1.602-2.849-3.917-3.561c-3.917-1.246-5.875-4.451-5.875-8.012c0-3.739 2.493-6.944 6.766-8.012c1.78-0.356 3.027-1.602 3.027-3.383v-12.463c0-6.766 5.519-12.285 12.463-12.285c6.766-0 12.285 5.519 12.285 12.285v12.463c0 1.78 1.246 2.849 3.027 3.383zM515.704 422.925c0-24.926 19.763-45.579 44.155-45.579c20.653-0 36.143 19.051 38.636 32.582c2.671 14.065-3.027 21.543-17.092 21.543h-32.226c-7.122-0-10.327 4.985-6.41 10.683c3.561 5.163 9.436 7.122 15.49 7.122c13.709-0 15.668-4.807 25.104-4.807c7.122-0 12.285 7.834 5.163 14.244c-7.656 6.944-17.626 9.792-28.665 9.792c-24.392-0-44.155-20.475-44.155-45.579zM538.316 409.571c-0.89 3.739 0.712 5.697 4.273 5.697h31.158c3.561-0 5.341-2.137 4.273-5.519c-1.958-6.41-8.902-12.819-19.763-12.819c-10.861-0-18.339 6.41-19.941 12.641zM664.318 375.387c4.807 1.246 5.697 8.012 4.273 12.819c-1.602 5.163-8.902 6.944-14.778 8.546c-6.944 1.958-12.107 7.656-12.107 14.778v44.689c0 6.944-5.519 12.285-12.285 12.285c-6.944-0-12.463-5.341-12.463-12.285v-69.793c0-6.766 5.519-12.285 12.463-12.285c4.095-0 8.012 1.958 10.149 5.163c1.424 2.137 3.561 3.205 5.519 1.78c3.739-2.849 9.614-8.19 19.229-5.697z" fill="#000000" stroke="none" /></g><g transform="translate(0,3000)"><rect fill="#f0f0f0" stroke="#cacaca" stroke-width="10" x="19.948" y="19.948" width="2210.105" height="960.105" rx="19.948" ry="19.948" /><path fill="url(#key-f0f0f0)" stroke="#cacaca" stroke-width="10" d="M190.026 129.659c0-44.067 35.723-79.79 79.79-79.79h1710.367c44.067 0 79.79 35.723 79.79 79.79v570.604c0 44.067-35.723 79.79-79.79 79.79c-570.045 13.333-1140.323 13.333-1710.367 0c-44.067 0-79.79-35.723-79.79-79.79z" /><path d="M338.648 432.793c0 16.095-12.407 35.711-39.735 35.711c-22.969-0-39.567-6.874-46.944-22.466c-2.683-5.7-3.688-13.916 5.03-16.598c6.203-1.844 12.071 0.838 14.586 7.88c2.18 5.868 7.88 12.91 21.125 12.91c12.742-0 23.472-4.191 23.472-13.58c0-9.054-10.562-15.425-22.299-18.275c-17.269-4.191-41.412-10.562-41.412-38.729c0-19.281 22.131-30.849 38.897-30.849c17.604-0 27.496 3.521 37.891 13.916c9.054 9.054 6.203 19.281 2.012 22.466c-4.862 3.688-12.91 4.527-17.101-3.856c-2.683-5.365-8.383-12.407-19.784-12.407c-13.413-0-20.119 6.203-20.119 13.58c0 11.736 28.502 16.598 40.573 19.616c13.245 3.353 23.807 15.257 23.807 30.681zM410.501 374.141c18.517-0 29.555 13.887 29.555 27.241v54.838c0 6.944-5.519 12.285-12.285 12.285c-6.944-0-12.463-5.341-12.463-12.285v-48.606c0-6.766-7.122-11.395-14.422-11.395c-7.122-0-14.6 4.273-14.6 11.395v48.606c0 6.944-5.519 12.285-12.285 12.285c-6.944-0-12.463-5.341-12.463-12.285v-102.375c0.178-6.766 5.519-12.107 12.463-12.107c6.766-0 12.107 5.341 12.285 12.107v23.146c0 4.095 1.424 5.519 3.383 4.095c3.739-2.849 9.792-6.944 20.831-6.944zM481.963 365.595c-8.012-0-14.422-6.232-14.422-14.244c0-7.834 6.41-14.244 14.422-14.244c7.834-0 14.244 6.41 14.244 14.244c0 8.012-6.41 14.244-14.244 14.244zM481.963 376.099c6.766-0 12.285 5.519 12.285 12.285v67.835c0 6.944-5.519 12.285-12.285 12.285c-6.944-0-12.463-5.341-12.463-12.285v-67.835c0-6.766 5.519-12.285 12.463-12.285zM561.502 363.458c-3.917 0.712-6.766 3.917-6.766 9.08v3.205c0 1.78 1.246 2.849 3.027 3.383c4.451 1.068 6.588 4.451 6.588 8.012c0 3.917-2.315 7.122-6.588 8.19c-1.78 0.356-3.027 1.602-3.027 3.383v57.508c0 6.944-5.519 12.285-12.285 12.285c-6.944-0-12.463-5.341-12.463-12.285v-57.508c0-1.78-1.602-2.849-3.917-3.561c-3.917-1.246-5.875-4.451-5.875-8.012c0-3.739 2.493-6.944 6.766-8.012c1.78-0.356 3.027-1.602 3.027-3.383v-12.463v-0.356c0.178-8.546 4.095-16.914 16.914-17.804c16.38-1.068 26.707-0.178 26.707 9.614c0 9.436-8.902 8.19-12.107 8.724zM626.343 379.126c4.451 1.068 6.588 4.451 6.588 8.012c0 3.917-2.315 7.122-6.588 8.19c-1.78 0.356-3.027 1.602-3.027 3.383v57.508c0 6.944-5.519 12.285-12.285 12.285c-6.944-0-12.463-5.341-12.463-12.285v-57.508c0-1.78-1.602-2.849-3.917-3.561c-3.917-1.246-5.875-4.451-5.875-8.012c0-3.739 2.493-6.944 6.766-8.012c1.78-0.356 3.027-1.602 3.027-3.383v-12.463c0-6.766 5.519-12.285 12.463-12.285c6.766-0 12.285 5.519 12.285 12.285v12.463c0 1.78 1.246 2.849 3.027 3.383z" fill="#000000" stroke="none" /></g><g transform="translate(2250,3000)"><rect fill="#f0f0f0" stroke="#cacaca" stroke-width="10" x="19.948" y="19.948" width="960.105" height="960.105" rx="19.948" ry="19.948" /><path fill="url(#key-f0f0f0)" stroke="#cacaca" stroke-width="10" d="M190.026 129.659c0-44.067 35.723-79.79 79.79-79.79h460.367c44.067 0 79.79 35.723 79.79 79.79v570.604c0 44.067-35.723 79.79-79.79 79.79c-153.166 13.333-307.201 13.333-460.367 0c-44.067 0-79.79-35.723-79.79-79.79z" /><path d="M453.525 153.845l-114.92 149.288c-4.654 5.728-2.148 11.098 5.37 11.098h83.773c13.962-0 25.776 11.098 25.776 25.776c0 14.678-11.456 26.134-25.776 26.134h-149.646c-14.678-0-26.134-11.456-26.134-26.134c0-6.444 2.148-12.172 6.086-16.468l114.204-148.572c4.654-5.728 2.148-11.098-5.37-11.098h-77.687c-14.678-0-26.134-11.456-26.134-26.134c0-14.32 11.456-25.776 26.134-25.776h143.918c14.32-0 25.776 11.098 25.776 25.776c0 6.086-2.148 11.814-5.37 16.11z" fill="#000000" stroke="none" /></g><g transform="translate(3250,3000)"><rect fill="#f0f0f0" stroke="#cacaca" stroke-width="10" x="19.948" y="19.948" width="960.105" height="960.105" rx="19.948" ry="19.948" /><path fill="url(#key-f0f0f0)" stroke="#cacaca" stroke-width="10" d="M190.026 129.659c0-44.067 35.723-79.79 79.79-79.79h460.367c44.067 0 79.79 35.723 79.79 79.79v570.604c0 44.067-35.723 79.79-79.79 79.79c-153.166 13.333-307.201 13.333-460.367 0c-44.067 0-79.79-35.723-79.79-79.79z" /><path d="M251.969 330.201l47.082-85.179c2.156-4.313 2.156-7.907 0-12.22l-47.082-85.179c-7.188-12.579-3.235-28.393 9.345-35.581c12.579-7.188 28.752-2.875 35.941 9.704l31.628 51.395c3.594 5.75 8.626 5.75 12.22-0l31.268-51.395c7.188-12.579 23.361-16.892 35.941-9.704c12.579 7.188 16.533 23.002 9.345 35.581l-47.082 85.179c-2.156 4.313-2.156 7.907 0 12.22l47.082 85.179c7.188 12.579 2.875 28.752-9.704 35.941c-12.579 7.188-29.471 2.875-35.581-10.063l-31.628-57.505c-3.594-6.11-8.626-6.469-12.22-0l-31.268 57.505c-6.11 12.939-23.002 17.251-35.581 10.063c-12.579-7.188-16.892-23.361-9.704-35.941z" fill="#000000" stroke="none" /></g><g transform="translate(4250,3000)"><rect fill="#f0f0f0" stroke="#cacaca" stroke-width="10" x="19.948" y="19.948" width="960.105" height="960.105" rx="19.948" ry="19.948" /><path fill="url(#key-f0f0f0)" stroke="#cacaca" stroke-width="10" d="M190.026 129.659c0-44.067 35.723-79.79 79.79-79.79h460.367c44.067 0 79.79 35.723 79.79 79.79v570.604c0 44.067-35.723 79.79-79.79 79.79c-153.166 13.333-307.201 13.333-460.367 0c-44.067 0-79.79-35.723-79.79-79.79z" /><path d="M443.162 280.775c12.699 5.291 18.343 19.049 11.994 29.279c-20.107 33.865-53.972 56.088-92.069 56.088c-61.38-0-111.118-56.794-111.118-126.992c0-69.846 49.386-126.992 111.118-126.992c39.861-0 74.431 23.987 93.833 59.969c0.353-0 0.353 0.353 0.353 0.353c6.35 11.994-1.058 25.398-12.699 30.337c-11.641 4.939-24.34-1.058-31.043-12.699c-11.641-20.107-29.984-33.159-50.444-33.159c-34.923-0-63.143 37.039-63.143 82.192c0 45.506 28.22 82.192 63.143 82.192c18.696-0 35.276-10.583 46.917-27.868l0.353-0.353c7.761-10.935 21.165-17.285 32.806-12.346z" fill="#000000" stroke="none" /></g><g transform="translate(5250,3000)"><rect fill="#f0f0f0" stroke="#cacaca" stroke-width="10" x="19.948" y="19.948" width="960.105" height="960.105" rx="19.948" ry="19.948" /><path fill="url(#key-f0f0f0)" stroke="#cacaca" stroke-width="10" d="M190.026 129.659c0-44.067 35.723-79.79 79.79-79.79h460.367c44.067 0 79.79 35.723 79.79 79.79v570.604c0 44.067-35.723 79.79-79.79 79.79c-153.166 13.333-307.201 13.333-460.367 0c-44.067 0-79.79-35.723-79.79-79.79z" /><path d="M381.672 366.142c-11.296 26.097-44.014 25.707-54.92-0.39l-74.784-218.51c-4.674-15.191 4.285-30.771 19.086-35.055c14.801-4.285 30.771 4.674 35.055 19.475l41.677 138.273c2.727 9.348 9.738 9.348 12.464-0l42.456-138.273c4.285-14.801 20.254-23.76 35.055-19.475c14.801 4.285 23.76 19.865 19.086 35.055z" fill="#000000" stroke="none" /></g><g transform="translate(6250,3000)"><rect fill="#f0f0f0" stroke="#cacaca" stroke-width="10" x="19.948" y="19.948" width="960.105" height="960.105" rx="19.948" ry="19.948" /><path fill="url(#key-f0f0f0)" stroke="#cacaca" stroke-width="10" d="M190.026 129.659c0-44.067 35.723-79.79 79.79-79.79h460.367c44.067 0 79.79 35.723 79.79 79.79v570.604c0 44.067-35.723 79.79-79.79 79.79c-153.166 13.333-307.201 13.333-460.367 0c-44.067 0-79.79-35.723-79.79-79.79z" /><path d="M428.682 233.974c19.512 12.517 32.766 34.975 32.766 60.377c0 39.761-32.398 71.79-72.158 71.79h-110.078c-15.094-0-27.243-12.149-27.243-27.243v-199.908c0-14.726 12.149-26.875 27.243-26.875h108.237c34.238-0 62.954 28.348 62.954 62.954c0 19.144-8.836 36.447-22.457 47.86c-5.154 4.05-4.786 7.363 0.736 11.045zM308.296 158.135v53.014c0 4.418 2.945 6.995 8.099 6.995h41.97c21.721-0 39.392-14.726 39.392-33.502c0-18.408-17.671-33.502-39.392-33.502h-41.97c-5.154-0-8.099 2.945-8.099 6.995zM363.887 326.749c24.298-0 43.81-16.199 43.81-37.184c0-20.617-19.512-37.184-43.81-37.184h-46.387c-5.89-0-9.204 2.945-9.204 7.731v58.905c0 4.786 3.313 7.731 9.204 7.731h46.387z" fill="#000000" stroke="none" /></g><g transform="translate(7250,3000)"><rect fill="#f0f0f0" stroke="#cacaca" stroke-width="10" x="19.948" y="19.948" width="960.105" height="960.105" rx="19.948" ry="19.948" /><path fill="url(#key-f0f0f0)" stroke="#cacaca" stroke-width="10" d="M190.026 129.659c0-44.067 35.723-79.79 79.79-79.79h460.367c44.067 0 79.79 35.723 79.79 79.79v570.604c0 44.067-35.723 79.79-79.79 79.79c-153.166 13.333-307.201 13.333-460.367 0c-44.067 0-79.79-35.723-79.79-79.79z" /><path d="M251.969 340.595v-201.225c-0.35-4.199 0.35-8.049 2.1-11.549c3.5-9.099 12.598-15.748 23.097-15.748c6.649-0 12.948 2.8 17.498 6.999c1.4 1.4 2.8 3.15 4.199 4.899l81.89 127.034c4.549 6.999 10.499 5.949 10.499-2.8l1.05-110.586c0-13.998 11.199-25.547 25.197-25.547c13.998-0 25.547 11.549 25.547 25.547v202.975c0 13.998-11.549 25.547-25.547 25.547l-3.5-0.35c-7.349-0.7-15.048-5.249-19.248-11.549l-79.79-124.584c-4.549-6.999-10.849-5.949-10.849 2.8l-1.4 108.136c0 13.998-11.549 25.547-25.547 25.547c-13.998-0-25.197-11.549-25.197-25.547z" fill="#000000" stroke="none" /></g><g transform="translate(8250,3000)"><rect fill="#f0f0f0" stroke="#cacaca" stroke-width="10" x="19.948" y="19.948" width="960.105" height="960.105" rx="19.948" ry="19.948" /><path fill="url(#key-f0f0f0)" stroke="#cacaca" stroke-width="10" d="M190.026 129.659c0-44.067 35.723-79.79 79.79-79.79h460.367c44.067 0 79.79 35.723 79.79 79.79v570.604c0 44.067-35.723 79.79-79.79 79.79c-153.166 13.333-307.201 13.333-460.367 0c-44.067 0-79.79-35.723-79.79-79.79z" /><path d="M454.695 112.16c21.803-0 39.78 17.978 39.78 39.78v190.486c0 13.005-10.71 23.715-23.715 23.715c-13.005-0-23.715-10.71-23.715-23.715v-126.608c0-8.415-8.798-9.945-10.71-1.53l-30.983 125.078c-2.678 15.3-16.448 26.775-32.13 26.775c-15.683-0-29.453-11.475-32.13-26.775l-30.983-125.078c-1.913-8.415-10.71-6.885-10.71 1.53v126.608c0 13.005-10.71 23.715-23.715 23.715c-13.005-0-23.715-10.71-23.715-23.715v-190.486c0-21.803 17.978-39.78 39.78-39.78c19.125-0 35.19 13.77 39.015 31.365l36.338 136.171c2.295 8.798 9.945 8.798 12.24-0l36.338-136.171c3.825-17.595 19.89-31.365 39.015-31.365z" fill="#000000" stroke="none" /></g><g transform="translate(9250,3000)"><rect fill="#f0f0f0" stroke="#cacaca" stroke-width="10" x="19.948" y="19.948" width="960.105" height="960.105" rx="19.948" ry="19.948" /><path fill="url(#key-f0f0f0)" stroke="#cacaca" stroke-width="10" d="M190.026 129.659c0-44.067 35.723-79.79 79.79-79.79h460.367c44.067 0 79.79 35.723 79.79 79.79v570.604c0 44.067-35.723 79.79-79.79 79.79c-153.166 13.333-307.201 13.333-460.367 0c-44.067 0-79.79-35.723-79.79-79.79z" /><path d="M400.579 337.854c4.68 7.242 1.918 17.075-5.3 21.411c-6.138 3.72-12.186 1.222-18.531-1.987c-25.33-13.526-97.832-54.553-109.785-61.612c-7.305-4.314-18.105-13.021-17.095-27.471c0.986-14.106 10.509-21.738 20.6-27.601c20.157-11.383 73.091-41.563 109.845-62.849c7.586-4.656 17.835-2.902 21.435 4.956c3.575 8.202 1.205 17.371-5.3 21.411c-27.447 16.75-67.466 40.228-101.371 60.33c-3.609 2.168-2.89 6.713 1.071 9.41c100.272 59.218 101.624 59.658 104.432 64.003z" fill="#000000" stroke="none" /><path d="M249.869 663.424c0-12.416 10.347-22.763 23.453-22.763c20.349-0 26.212 19.314 26.212 32.42c0 20.004-18.969 43.802-23.108 49.32c-4.829 6.208-14.141 5.863-18.279 2.414c-5.173-4.139-5.173-11.037-2.759-15.175c4.484-7.933 6.208-10.692 10.692-18.279c1.38-2.759 0.345-5.173-2.414-6.553c-8.277-3.449-13.796-11.726-13.796-21.383z" fill="#000000" stroke="none" /></g><g transform="translate(10250,3000)"><rect fill="#f0f0f0" stroke="#cacaca" stroke-width="10" x="19.948" y="19.948" width="960.105" height="960.105" rx="19.948" ry="19.948" /><path fill="url(#key-f0f0f0)" stroke="#cacaca" stroke-width="10" d="M190.026 129.659c0-44.067 35.723-79.79 79.79-79.79h460.367c44.067 0 79.79 35.723 79.79 79.79v570.604c0 44.067-35.723 79.79-79.79 79.79c-153.166 13.333-307.201 13.333-460.367 0c-44.067 0-79.79-35.723-79.79-79.79z" /><path d="M251.038 337.854c2.808-4.345 4.16-4.785 104.432-64.003c3.96-2.697 4.68-7.242 1.071-9.41c-33.905-20.102-73.923-43.58-101.371-60.33c-6.506-4.04-8.876-13.209-5.3-21.411c3.599-7.858 13.849-9.612 21.435-4.956c36.754 21.286 89.687 51.467 109.845 62.849c10.091 5.863 19.613 13.495 20.6 27.601c1.01 14.45-9.79 23.157-17.095 27.471c-11.953 7.059-84.455 48.086-109.785 61.612c-6.345 3.21-12.393 5.707-18.531 1.987c-7.218-4.336-9.98-14.169-5.3-21.411z" fill="#000000" stroke="none" /><path d="M273.322 686.877c-13.106-0-23.453-10.347-23.453-23.453c0-12.416 10.347-22.763 23.453-22.763c12.416-0 22.763 10.347 22.763 22.763c0 13.106-10.347 23.453-22.763 23.453z" fill="#000000" stroke="none" /></g><g transform="translate(11250,3000)"><rect fill="#f0f0f0" stroke="#cacaca" stroke-width="10" x="19.948" y="19.948" width="960.105" height="960.105" rx="19.948" ry="19.948" /><path fill="url(#key-f0f0f0)" stroke="#cacaca" stroke-width="10" d="M190.026 129.659c0-44.067 35.723-79.79 79.79-79.79h460.367c44.067 0 79.79 35.723 79.79 79.79v570.604c0 44.067-35.723 79.79-79.79 79.79c-153.166 13.333-307.201 13.333-460.367 0c-44.067 0-79.79-35.723-79.79-79.79z" /><path d="M299.534 305.063c-7.174-1.104-11.037-9.105-8.277-19.038c2.483-9.105 9.657-25.108 20.418-35.041c12.416-11.588 30.075-20.418 30.075-40.008c0-14.624-11.037-34.489-32.006-34.489c-18.486-0-32.282 14.624-36.421 27.592c-2.207 6.898-4.966 15.175-19.038 12.968c-6.898-1.104-9.105-12.692-4.415-24.005c8.277-20.142 27.592-38.076 62.081-38.076c36.145-0 54.355 28.971 54.355 56.011c0 26.488-18.486 35.317-37.249 52.148c-11.037 9.933-12.692 20.694-15.175 29.523c-2.207 7.726-6.898 13.52-14.348 12.416zM299.81 351.969c-9.657-0-17.383-7.726-17.383-17.383c0-9.105 7.726-16.831 17.383-16.831c9.105-0 16.831 7.726 16.831 16.831c0 9.657-7.726 17.383-16.831 17.383z" fill="#000000" stroke="none" /><path d="M249.869 664.813l92.569-140.533c4.317-7.195 13.909-9.353 21.104-4.317c7.434 4.557 9.353 14.149 4.557 21.104l-92.09 140.773c-4.796 7.674-14.389 9.593-21.344 5.036c-7.674-5.036-9.832-14.629-4.796-22.063z" fill="#000000" stroke="none" /></g><g transform="translate(12250,3000)"><rect fill="#f0f0f0" stroke="#cacaca" stroke-width="10" x="19.948" y="19.948" width="2710.105" height="960.105" rx="19.948" ry="19.948" /><path fill="url(#key-f0f0f0)" stroke="#cacaca" stroke-width="10" d="M190.026 129.659c0-44.067 35.723-79.79 79.79-79.79h2210.367c44.067 0 79.79 35.723 79.79 79.79v570.604c0 44.067-35.723 79.79-79.79 79.79c-736.729 13.333-1473.639 13.333-2210.367 0c-44.067 0-79.79-35.723-79.79-79.79z" /><path d="M338.648 432.793c0 16.095-12.407 35.711-39.735 35.711c-22.969-0-39.567-6.874-46.944-22.466c-2.683-5.7-3.688-13.916 5.03-16.598c6.203-1.844 12.071 0.838 14.586 7.88c2.18 5.868 7.88 12.91 21.125 12.91c12.742-0 23.472-4.191 23.472-13.58c0-9.054-10.562-15.425-22.299-18.275c-17.269-4.191-41.412-10.562-41.412-38.729c0-19.281 22.131-30.849 38.897-30.849c17.604-0 27.496 3.521 37.891 13.916c9.054 9.054 6.203 19.281 2.012 22.466c-4.862 3.688-12.91 4.527-17.101-3.856c-2.683-5.365-8.383-12.407-19.784-12.407c-13.413-0-20.119 6.203-20.119 13.58c0 11.736 28.502 16.598 40.573 19.616c13.245 3.353 23.807 15.257 23.807 30.681zM410.501 374.141c18.517-0 29.555 13.887 29.555 27.241v54.838c0 6.944-5.519 12.285-12.285 12.285c-6.944-0-12.463-5.341-12.463-12.285v-48.606c0-6.766-7.122-11.395-14.422-11.395c-7.122-0-14.6 4.273-14.6 11.395v48.606c0 6.944-5.519 12.285-12.285 12.285c-6.944-0-12.463-5.341-12.463-12.285v-102.375c0.178-6.766 5.519-12.107 12.463-12.107c6.766-0 12.107 5.341 12.285 12.107v23.146c0 4.095 1.424 5.519 3.383 4.095c3.739-2.849 9.792-6.944 20.831-6.944zM481.963 365.595c-8.012-0-14.422-6.232-14.422-14.244c0-7.834 6.41-14.244 14.422-14.244c7.834-0 14.244 6.41 14.244 14.244c0 8.012-6.41 14.244-14.244 14.244zM481.963 376.099c6.766-0 12.285 5.519 12.285 12.285v67.835c0 6.944-5.519 12.285-12.285 12.285c-6.944-0-12.463-5.341-12.463-12.285v-67.835c0-6.766 5.519-12.285 12.463-12.285zM561.502 363.458c-3.917 0.712-6.766 3.917-6.766 9.08v3.205c0 1.78 1.246 2.849 3.027 3.383c4.451 1.068 6.588 4.451 6.588 8.012c0 3.917-2.315 7.122-6.588 8.19c-1.78 0.356-3.027 1.602-3.027 3.383v57.508c0 6.944-5.519 12.285-12.285 12.285c-6.944-0-12.463-5.341-12.463-12.285v-57.508c0-1.78-1.602-2.849-3.917-3.561c-3.917-1.246-5.875-4.451-5.875-8.012c0-3.739 2.493-6.944 6.766-8.012c1.78-0.356 3.027-1.602 3.027-3.383v-12.463v-0.356c0.178-8.546 4.095-16.914 16.914-17.804c16.38-1.068 26.707-0.178 26.707 9.614c0 9.436-8.902 8.19-12.107 8.724zM626.343 379.126c4.451 1.068 6.588 4.451 6.588 8.012c0 3.917-2.315 7.122-6.588 8.19c-1.78 0.356-3.027 1.602-3.027 3.383v57.508c0 6.944-5.519 12.285-12.285 12.285c-6.944-0-12.463-5.341-12.463-12.285v-57.508c0-1.78-1.602-2.849-3.917-3.561c-3.917-1.246-5.875-4.451-5.875-8.012c0-3.739 2.493-6.944 6.766-8.012c1.78-0.356 3.027-1.602 3.027-3.383v-12.463c0-6.766 5.519-12.285 12.463-12.285c6.766-0 12.285 5.519 12.285 12.285v12.463c0 1.78 1.246 2.849 3.027 3.383z" fill="#000000" stroke="none" /></g><g transform="translate(0,4000)"><rect fill="#f0f0f0" stroke="#cacaca" stroke-width="10" x="19.948" y="19.948" width="1210.105" height="960.105" rx="19.948" ry="19.948" /><path fill="url(#key-f0f0f0)" stroke="#cacaca" stroke-width="10" d="M190.026 129.659c0-44.067 35.723-79.79 79.79-79.79h710.367c44.067 0 79.79 35.723 79.79 79.79v570.604c0 44.067-35.723 79.79-79.79 79.79c-236.601 13.333-473.766 13.333-710.367 0c-44.067 0-79.79-35.723-79.79-79.79z" /><path d="M342.035 428.29c5.982 2.493 8.641 8.973 5.65 13.792c-9.472 15.953-25.425 26.422-43.371 26.422c-28.914-0-52.345-26.754-52.345-59.823c0-32.903 23.264-59.823 52.345-59.823c18.778-0 35.063 11.3 44.202 28.25c0.166-0 0.166 0.166 0.166 0.166c2.991 5.65-0.499 11.965-5.982 14.291c-5.484 2.326-11.466-0.499-14.623-5.982c-5.484-9.472-14.125-15.62-23.763-15.62c-16.451-0-29.745 17.448-29.745 38.719c0 21.436 13.294 38.719 29.745 38.719c8.807-0 16.617-4.985 22.101-13.128l0.166-0.166c3.656-5.151 9.97-8.143 15.454-5.816zM407.181 379.126c4.451 1.068 6.588 4.451 6.588 8.012c0 3.917-2.315 7.122-6.588 8.19c-1.78 0.356-3.027 1.602-3.027 3.383v57.508c0 6.944-5.519 12.285-12.285 12.285c-6.944-0-12.463-5.341-12.463-12.285v-57.508c0-1.78-1.602-2.849-3.917-3.561c-3.917-1.246-5.875-4.451-5.875-8.012c0-3.739 2.493-6.944 6.766-8.012c1.78-0.356 3.027-1.602 3.027-3.383v-12.463c0-6.766 5.519-12.285 12.463-12.285c6.766-0 12.285 5.519 12.285 12.285v12.463c0 1.78 1.246 2.849 3.027 3.383zM481.596 375.387c4.807 1.246 5.697 8.012 4.273 12.819c-1.602 5.163-8.902 6.944-14.778 8.546c-6.944 1.958-12.107 7.656-12.107 14.778v44.689c0 6.944-5.519 12.285-12.285 12.285c-6.944-0-12.463-5.341-12.463-12.285v-69.793c0-6.766 5.519-12.285 12.463-12.285c4.095-0 8.012 1.958 10.149 5.163c1.424 2.137 3.561 3.205 5.519 1.78c3.739-2.849 9.614-8.19 19.229-5.697zM519.335 350.995c6.766-0 12.285 5.519 12.285 12.285v92.939c0 6.944-5.519 12.285-12.285 12.285c-6.944-0-12.463-5.341-12.463-12.285v-92.939c0-6.766 5.519-12.285 12.463-12.285z" fill="#000000" stroke="none" /></g><g transform="translate(1250,4000)"><rect fill="#f0f0f0" stroke="#cacaca" stroke-width="10" x="19.948" y="19.948" width="1210.105" height="960.105" rx="19.948" ry="19.948" /><path fill="url(#key-f0f0f0)" stroke="#cacaca" stroke-width="10" d="M190.026 129.659c0-44.067 35.723-79.79 79.79-79.79h710.367c44.067 0 79.79 35.723 79.79 79.79v570.604c0 44.067-35.723 79.79-79.79 79.79c-236.601 13.333-473.766 13.333-710.367 0c-44.067 0-79.79-35.723-79.79-79.79z" /><path d="M291.571 468.504c-4.759-0-10.368-2.719-13.937-13.427l-25.665-90.422c-1.87-6.459 1.7-13.427 7.479-15.297c5.609-1.87 11.898 2.04 13.597 8.498l15.977 62.717c1.02 4.079 4.249 4.249 5.269 0.17l16.317-62.887c0.51-1.87 1.53-3.399 2.549-4.929c1.19-1.7 2.889-2.889 4.929-3.569c1.02-0.34 2.04-0.51 3.059-0.51c1.02-0 2.04 0.17 3.059 0.51c2.04 0.68 3.569 2.04 4.929 3.569c1.19 1.36 2.04 3.059 2.549 4.929l16.317 62.887c1.02 4.079 4.249 3.909 5.269-0.17l15.977-62.717c1.7-6.459 7.988-10.368 13.597-8.498c5.779 1.87 9.348 8.838 7.479 15.297l-25.665 90.422c-3.569 10.708-9.178 13.427-13.937 13.427c-3.739-0-12.068-2.719-14.277-13.427l-13.257-62.208c-0.68-3.229-3.399-3.229-4.079-0l-13.257 62.208c-2.21 10.708-10.538 13.427-14.277 13.427zM422.046 365.595c-8.012-0-14.422-6.232-14.422-14.244c0-7.834 6.41-14.244 14.422-14.244c7.834-0 14.244 6.41 14.244 14.244c0 8.012-6.41 14.244-14.244 14.244zM422.046 376.099c6.766-0 12.285 5.519 12.285 12.285v67.835c0 6.944-5.519 12.285-12.285 12.285c-6.944-0-12.463-5.341-12.463-12.285v-67.835c0-6.766 5.519-12.285 12.463-12.285zM509.241 374.141c18.517-0 29.555 13.887 29.555 27.241v54.838c0 6.944-5.519 12.285-12.285 12.285c-6.944-0-12.463-5.341-12.463-12.285v-48.606c0-6.766-7.122-11.395-14.422-11.395c-7.122-0-14.6 4.273-14.6 11.395v48.606c0 6.944-5.519 12.285-12.285 12.285c-6.944-0-12.463-5.341-12.463-12.285v-69.793c0-6.766 5.519-12.285 12.463-12.285c4.095-0 7.834 1.958 10.149 5.163c1.424 2.137 3.561 3.205 5.519 1.78c3.739-2.849 9.792-6.944 20.831-6.944z" fill="#000000" stroke="none" /></g><g transform="translate(2500,4000)"><rect fill="#f0f0f0" stroke="#cacaca" stroke-width="10" x="19.948" y="19.948" width="1210.105" height="960.105" rx="19.948" ry="19.948" /><path fill="url(#key-f0f0f0)" stroke="#cacaca" stroke-width="10" d="M190.026 129.659c0-44.067 35.723-79.79 79.79-79.79h710.367c44.067 0 79.79 35.723 79.79 79.79v570.604c0 44.067-35.723 79.79-79.79 79.79c-236.601 13.333-473.766 13.333-710.367 0c-44.067 0-79.79-35.723-79.79-79.79z" /><path d="M354.757 452.753c0.487 1.137 0.812 2.436 0.812 3.897c0 6.495-5.359 11.854-11.854 11.854c-5.359-0-10.23-3.897-11.529-9.093l-8.119-25.819c-0.65-2.273-2.436-3.41-4.709-3.41h-31.177c-2.273-0-4.06 1.137-4.709 3.41l-8.119 25.819c-1.299 5.196-6.171 9.093-11.529 9.093c-6.495-0-11.854-5.359-11.854-11.854c0-1.461 0.325-2.761 0.812-3.897l31.502-92.233c1.786-6.658 9.418-11.692 18.674-11.692c9.256-0 16.888 5.034 18.674 11.692zM313.187 412.807c2.923-0 4.222-1.786 3.41-4.547l-8.444-26.468c-0.65-2.273-2.111-3.41-3.897-3.41c-1.786-0-3.248 1.137-3.897 3.41l-8.444 26.468c-0.812 2.761 0.487 4.547 3.41 4.547h17.862zM390.426 350.995c6.766-0 12.285 5.519 12.285 12.285v92.939c0 6.944-5.519 12.285-12.285 12.285c-6.944-0-12.463-5.341-12.463-12.285v-92.939c0-6.766 5.519-12.285 12.463-12.285zM464.229 379.126c4.451 1.068 6.588 4.451 6.588 8.012c0 3.917-2.315 7.122-6.588 8.19c-1.78 0.356-3.027 1.602-3.027 3.383v57.508c0 6.944-5.519 12.285-12.285 12.285c-6.944-0-12.463-5.341-12.463-12.285v-57.508c0-1.78-1.602-2.849-3.917-3.561c-3.917-1.246-5.875-4.451-5.875-8.012c0-3.739 2.493-6.944 6.766-8.012c1.78-0.356 3.027-1.602 3.027-3.383v-12.463c0-6.766 5.519-12.285 12.463-12.285c6.766-0 12.285 5.519 12.285 12.285v12.463c0 1.78 1.246 2.849 3.027 3.383z" fill="#000000" stroke="none" /></g><g transform="translate(3750,4000)"><rect fill="#f0f0f0" stroke="#cacaca" stroke-width="10" x="19.948" y="19.948" width="6210.105" height="960.105" rx="19.948" ry="19.948" /><path fill="url(#space-f0f0f0)" stroke="#cacaca" stroke-width="10" d="M190.026 129.659c0-44.067 35.723-79.79 79.79-79.79h5710.367c44.067 0 79.79 35.723 79.79 79.79c-13.333 189.968-13.333 380.636 0 570.604c0 44.067-35.723 79.79-79.79 79.79h-5710.367c-44.067 0-79.79-35.723-79.79-79.79c13.333-189.968 13.333-380.636 0-570.604z" /></g><g transform="translate(10000,4000)"><rect fill="#f0f0f0" stroke="#cacaca" stroke-width="10" x="19.948" y="19.948" width="1210.105" height="960.105" rx="19.948" ry="19.948" /><path fill="url(#key-f0f0f0)" stroke="#cacaca" stroke-width="10" d="M190.026 129.659c0-44.067 35.723-79.79 79.79-79.79h710.367c44.067 0 79.79 35.723 79.79 79.79v570.604c0 44.067-35.723 79.79-79.79 79.79c-236.601 13.333-473.766 13.333-710.367 0c-44.067 0-79.79-35.723-79.79-79.79z" /><path d="M354.757 452.753c0.487 1.137 0.812 2.436 0.812 3.897c0 6.495-5.359 11.854-11.854 11.854c-5.359-0-10.23-3.897-11.529-9.093l-8.119-25.819c-0.65-2.273-2.436-3.41-4.709-3.41h-31.177c-2.273-0-4.06 1.137-4.709 3.41l-8.119 25.819c-1.299 5.196-6.171 9.093-11.529 9.093c-6.495-0-11.854-5.359-11.854-11.854c0-1.461 0.325-2.761 0.812-3.897l31.502-92.233c1.786-6.658 9.418-11.692 18.674-11.692c9.256-0 16.888 5.034 18.674 11.692zM313.187 412.807c2.923-0 4.222-1.786 3.41-4.547l-8.444-26.468c-0.65-2.273-2.111-3.41-3.897-3.41c-1.786-0-3.248 1.137-3.897 3.41l-8.444 26.468c-0.812 2.761 0.487 4.547 3.41 4.547h17.862zM390.426 350.995c6.766-0 12.285 5.519 12.285 12.285v92.939c0 6.944-5.519 12.285-12.285 12.285c-6.944-0-12.463-5.341-12.463-12.285v-92.939c0-6.766 5.519-12.285 12.463-12.285zM464.229 379.126c4.451 1.068 6.588 4.451 6.588 8.012c0 3.917-2.315 7.122-6.588 8.19c-1.78 0.356-3.027 1.602-3.027 3.383v57.508c0 6.944-5.519 12.285-12.285 12.285c-6.944-0-12.463-5.341-12.463-12.285v-57.508c0-1.78-1.602-2.849-3.917-3.561c-3.917-1.246-5.875-4.451-5.875-8.012c0-3.739 2.493-6.944 6.766-8.012c1.78-0.356 3.027-1.602 3.027-3.383v-12.463c0-6.766 5.519-12.285 12.463-12.285c6.766-0 12.285 5.519 12.285 12.285v12.463c0 1.78 1.246 2.849 3.027 3.383z" fill="#000000" stroke="none" /></g><g transform="translate(11250,4000)"><rect fill="#f0f0f0" stroke="#cacaca" stroke-width="10" x="19.948" y="19.948" width="1210.105" height="960.105" rx="19.948" ry="19.948" /><path fill="url(#key-f0f0f0)" stroke="#cacaca" stroke-width="10" d="M190.026 129.659c0-44.067 35.723-79.79 79.79-79.79h710.367c44.067 0 79.79 35.723 79.79 79.79v570.604c0 44.067-35.723 79.79-79.79 79.79c-236.601 13.333-473.766 13.333-710.367 0c-44.067 0-79.79-35.723-79.79-79.79z" /><path d="M291.571 468.504c-4.759-0-10.368-2.719-13.937-13.427l-25.665-90.422c-1.87-6.459 1.7-13.427 7.479-15.297c5.609-1.87 11.898 2.04 13.597 8.498l15.977 62.717c1.02 4.079 4.249 4.249 5.269 0.17l16.317-62.887c0.51-1.87 1.53-3.399 2.549-4.929c1.19-1.7 2.889-2.889 4.929-3.569c1.02-0.34 2.04-0.51 3.059-0.51c1.02-0 2.04 0.17 3.059 0.51c2.04 0.68 3.569 2.04 4.929 3.569c1.19 1.36 2.04 3.059 2.549 4.929l16.317 62.887c1.02 4.079 4.249 3.909 5.269-0.17l15.977-62.717c1.7-6.459 7.988-10.368 13.597-8.498c5.779 1.87 9.348 8.838 7.479 15.297l-25.665 90.422c-3.569 10.708-9.178 13.427-13.937 13.427c-3.739-0-12.068-2.719-14.277-13.427l-13.257-62.208c-0.68-3.229-3.399-3.229-4.079-0l-13.257 62.208c-2.21 10.708-10.538 13.427-14.277 13.427zM422.046 365.595c-8.012-0-14.422-6.232-14.422-14.244c0-7.834 6.41-14.244 14.422-14.244c7.834-0 14.244 6.41 14.244 14.244c0 8.012-6.41 14.244-14.244 14.244zM422.046 376.099c6.766-0 12.285 5.519 12.285 12.285v67.835c0 6.944-5.519 12.285-12.285 12.285c-6.944-0-12.463-5.341-12.463-12.285v-67.835c0-6.766 5.519-12.285 12.463-12.285zM509.241 374.141c18.517-0 29.555 13.887 29.555 27.241v54.838c0 6.944-5.519 12.285-12.285 12.285c-6.944-0-12.463-5.341-12.463-12.285v-48.606c0-6.766-7.122-11.395-14.422-11.395c-7.122-0-14.6 4.273-14.6 11.395v48.606c0 6.944-5.519 12.285-12.285 12.285c-6.944-0-12.463-5.341-12.463-12.285v-69.793c0-6.766 5.519-12.285 12.463-12.285c4.095-0 7.834 1.958 10.149 5.163c1.424 2.137 3.561 3.205 5.519 1.78c3.739-2.849 9.792-6.944 20.831-6.944z" fill="#000000" stroke="none" /></g><g transform="translate(12500,4000)"><rect fill="#f0f0f0" stroke="#cacaca" stroke-width="10" x="19.948" y="19.948" width="1210.105" height="960.105" rx="19.948" ry="19.948" /><path fill="url(#key-f0f0f0)" stroke="#cacaca" stroke-width="10" d="M190.026 129.659c0-44.067 35.723-79.79 79.79-79.79h710.367c44.067 0 79.79 35.723 79.79 79.79v570.604c0 44.067-35.723 79.79-79.79 79.79c-236.601 13.333-473.766 13.333-710.367 0c-44.067 0-79.79-35.723-79.79-79.79z" /><path d="M347.468 348.86c10.271-0 18.739 8.469 18.739 18.739v89.733c0 6.126-5.045 11.172-11.172 11.172c-6.126-0-11.172-5.045-11.172-11.172v-59.642c0-3.964-4.144-4.685-5.045-0.721l-14.595 58.921c-1.261 7.207-7.748 12.613-15.136 12.613c-7.388-0-13.874-5.406-15.136-12.613l-14.595-58.921c-0.901-3.964-5.045-3.243-5.045 0.721v59.642c0 6.126-5.045 11.172-11.172 11.172c-6.126-0-11.172-5.045-11.172-11.172v-89.733c0-10.271 8.469-18.739 18.739-18.739c9.009-0 16.577 6.487 18.379 14.775l17.118 64.147c1.081 4.144 4.685 4.144 5.766-0l17.118-64.147c1.802-8.289 9.37-14.775 18.379-14.775zM385.315 422.925c0-24.926 19.763-45.579 44.155-45.579c20.653-0 36.143 19.051 38.636 32.582c2.671 14.065-3.027 21.543-17.092 21.543h-32.226c-7.122-0-10.327 4.985-6.41 10.683c3.561 5.163 9.436 7.122 15.49 7.122c13.709-0 15.668-4.807 25.104-4.807c7.122-0 12.285 7.834 5.163 14.244c-7.656 6.944-17.626 9.792-28.665 9.792c-24.392-0-44.155-20.475-44.155-45.579zM407.927 409.571c-0.89 3.739 0.712 5.697 4.273 5.697h31.158c3.561-0 5.341-2.137 4.273-5.519c-1.958-6.41-8.902-12.819-19.763-12.819c-10.861-0-18.339 6.41-19.941 12.641zM535.532 374.141c18.517-0 29.555 13.887 29.555 27.241v54.838c0 6.944-5.519 12.285-12.285 12.285c-6.944-0-12.463-5.341-12.463-12.285v-48.606c0-6.766-7.122-11.395-14.422-11.395c-7.122-0-14.6 4.273-14.6 11.395v48.606c0 6.944-5.519 12.285-12.285 12.285c-6.944-0-12.463-5.341-12.463-12.285v-69.793c0-6.766 5.519-12.285 12.463-12.285c4.095-0 7.834 1.958 10.149 5.163c1.424 2.137 3.561 3.205 5.519 1.78c3.739-2.849 9.792-6.944 20.831-6.944zM655.098 374.141c6.944-0 12.463 5.341 12.463 12.285v69.793c0 6.766-5.519 12.285-12.463 12.285c-4.095-0-7.834-1.958-10.149-5.163c-1.424-2.137-3.561-3.205-5.519-1.78c-3.739 2.849-9.792 6.944-20.831 6.944c-18.517-0-29.555-13.887-29.555-27.241v-54.838c0-6.944 5.519-12.285 12.285-12.285c6.944-0 12.463 5.341 12.463 12.285v48.606c0 6.766 7.122 11.395 14.422 11.395c7.122-0 14.6-4.273 14.6-11.395v-48.606c0-6.944 5.519-12.285 12.285-12.285z" fill="#000000" stroke="none" /></g><g transform="translate(13750,4000)"><rect fill="#f0f0f0" stroke="#cacaca" stroke-width="10" x="19.948" y="19.948" width="1210.105" height="960.105" rx="19.948" ry="19.948" /><path fill="url(#key-f0f0f0)" stroke="#cacaca" stroke-width="10" d="M190.026 129.659c0-44.067 35.723-79.79 79.79-79.79h710.367c44.067 0 79.79 35.723 79.79 79.79v570.604c0 44.067-35.723 79.79-79.79 79.79c-236.601 13.333-473.766 13.333-710.367 0c-44.067 0-79.79-35.723-79.79-79.79z" /><path d="M342.035 428.29c5.982 2.493 8.641 8.973 5.65 13.792c-9.472 15.953-25.425 26.422-43.371 26.422c-28.914-0-52.345-26.754-52.345-59.823c0-32.903 23.264-59.823 52.345-59.823c18.778-0 35.063 11.3 44.202 28.25c0.166-0 0.166 0.166 0.166 0.166c2.991 5.65-0.499 11.965-5.982 14.291c-5.484 2.326-11.466-0.499-14.623-5.982c-5.484-9.472-14.125-15.62-23.763-15.62c-16.451-0-29.745 17.448-29.745 38.719c0 21.436 13.294 38.719 29.745 38.719c8.807-0 16.617-4.985 22.101-13.128l0.166-0.166c3.656-5.151 9.97-8.143 15.454-5.816zM407.181 379.126c4.451 1.068 6.588 4.451 6.588 8.012c0 3.917-2.315 7.122-6.588 8.19c-1.78 0.356-3.027 1.602-3.027 3.383v57.508c0 6.944-5.519 12.285-12.285 12.285c-6.944-0-12.463-5.341-12.463-12.285v-57.508c0-1.78-1.602-2.849-3.917-3.561c-3.917-1.246-5.875-4.451-5.875-8.012c0-3.739 2.493-6.944 6.766-8.012c1.78-0.356 3.027-1.602 3.027-3.383v-12.463c0-6.766 5.519-12.285 12.463-12.285c6.766-0 12.285 5.519 12.285 12.285v12.463c0 1.78 1.246 2.849 3.027 3.383zM481.596 375.387c4.807 1.246 5.697 8.012 4.273 12.819c-1.602 5.163-8.902 6.944-14.778 8.546c-6.944 1.958-12.107 7.656-12.107 14.778v44.689c0 6.944-5.519 12.285-12.285 12.285c-6.944-0-12.463-5.341-12.463-12.285v-69.793c0-6.766 5.519-12.285 12.463-12.285c4.095-0 8.012 1.958 10.149 5.163c1.424 2.137 3.561 3.205 5.519 1.78c3.739-2.849 9.614-8.19 19.229-5.697zM519.335 350.995c6.766-0 12.285 5.519 12.285 12.285v92.939c0 6.944-5.519 12.285-12.285 12.285c-6.944-0-12.463-5.341-12.463-12.285v-92.939c0-6.766 5.519-12.285 12.463-12.285z" fill="#000000" stroke="none" /></g></svg>